<?xml version="1.0" encoding="UTF-8"?>
<svg xmlns="http://www.w3.org/2000/svg" viewBox="0 0 1171.62 837.09">
  <g id="pact">
    <path fill="#FFFBEB" d="M418.64,755.6c0,14.15,0,26.99,0,39.83,0,6.58-.09,13.16.06,19.74.22,9.37,2.3,12.03,11.07,15.53,1.24.5,2.01,2.18,3,3.32-1.17.7-2.33,2-3.5,2.01-18.61.13-37.22.09-55.84.09-.4-.59-.79-1.17-1.19-1.76,1.28-1.26,2.34-3.12,3.87-3.69,8.39-3.09,11.06-6,11.08-14.83.11-51.97.11-103.95.01-155.92-.02-8.87-2.64-11.83-11-14.86-1.33-.48-3.1-1.97-3.16-3.08-.07-1.17,1.43-3.15,2.65-3.56,13.9-4.6,27.88-8.97,42.65-13.66v20.65c1.04-.15,1.66-.07,1.77-.28,9.8-18,26.08-22.26,44.76-20.58,18.25,1.63,31.34,11.34,38.05,28.19,10.72,26.94,11.05,54.47.34,81.44-10.41,26.21-35.23,35.08-62.86,31.81-10.99-1.3-12.95-2.57-21.75-10.4ZM418.64,699.31c0,12.93.28,25.88-.09,38.8-.29,10.43,5.05,17.09,13.61,21.3,8.76,4.32,17.63,2.66,24.29-4.09,4.95-5.01,9.34-11.24,11.97-17.75,8.7-21.53,11.63-44.16,7.68-67.05-1.63-9.46-5.31-19-10.09-27.36-5.42-9.49-17.08-12.4-27.22-9.13-10.34,3.34-20.11,15.49-20.14,25.14-.04,13.37,0,26.75-.01,40.12Z"/>
    <path fill="#FFFBEB" d="M638.93,621.03h-58.42c-.42-.48-.84-.97-1.26-1.45,1.39-1.27,2.58-3.26,4.19-3.67,6.99-1.79,10.54-6.22,10.55-13.2.06-30.26.42-60.53-.29-90.77-.4-16.71-11.27-26.15-27.61-26.3-14.82-.13-27.93,12.31-28.82,28.6-.79,14.43-.39,28.93-.44,43.4-.05,13.6.03,27.19-.02,40.79-.03,8.53,1.47,15.85,11.72,17.67,1.1.2,1.83,2.49,3.38,4.77h-62.04c1.68-2.23,2.43-4.31,3.77-4.82,9.81-3.73,11.85-6.25,11.9-16.86.09-22.15.03-44.3.03-66.44,0-27.85-.02-55.7.01-83.55.01-9.1-.98-17.4-12.39-19.16-.82-.13-2.13-1.98-1.94-2.67.38-1.38,1.41-3.26,2.59-3.65,13.9-4.54,27.87-8.83,42.93-13.54v86.11c9.39-8.88,18.55-14.59,29.64-16.43,12.78-2.12,25.43-1.56,37.47,3.46,14.87,6.21,21.41,18.19,21.51,33.82.17,26.09.06,52.19.08,78.29,0,2.41-.07,4.84.14,7.23.59,6.74,3.49,11.57,10.63,13.25,1.6.38,2.85,2.19,4.26,3.35-.53.59-1.05,1.19-1.58,1.78Z"/>
    <path fill="#FFFBEB" d="M587.35,756.5c-12.5,12.81-27.88,14.76-44.41,11.58-19.17-3.69-30.93-14.79-34.15-31.83-3.44-18.2,4.31-37.32,19.68-46.89,15.72-9.78,32.8-11.48,50.61-7.02,1.9.48,3.77,1.08,5.66,1.61.19.05.43-.05.23-.02,0-13.1,1.02-26.23-.31-39.13-1.15-11.19-7.51-16.05-16.57-16.24-9.22-.19-16.07,5.01-18.96,15.07-1.26,4.38-2.03,9.03-2.13,13.58-.14,6.04-2.99,9.33-8.51,10.86-.84.23-1.65.66-2.5.78-6.69.95-14.59,1.58-17.95-4.55-2.34-4.26-1.47-11.63.49-16.63,5.47-13.97,18.24-19.43,31.68-21.43,11.08-1.65,22.78-1.78,33.87-.2,21.39,3.06,33.03,17.54,33.3,39.77.31,26.08.09,52.17.12,78.25.01,10.78,1.12,11.76,11.85,11.07.91-.06,2.61.57,2.65.99.1,1.09-.21,2.54-.92,3.34-8.35,9.45-34.24,14.02-42.22-1.15-.28-.53-.77-.94-1.51-1.82ZM586.19,719.41c0-8.77.24-17.55-.19-26.3-.09-1.83-2.4-4.76-4.11-5.11-9.83-2.02-19.27-.73-27.31,5.85-14.66,12.02-18.53,46.08-7.1,61.36,5.37,7.18,14.5,9.87,23.57,6.95,9.74-3.13,14.97-9.63,15.11-19.08.12-7.89.02-15.78.02-23.68Z"/>
    <path fill="#FFFBEB" d="M705.78,539.5c-.87-14.8-.79-28.36-2.72-41.62-1.48-10.15-7.44-14.39-15.82-14.73-9.08-.37-15.95,4.48-19.03,14.04-1.26,3.91-1.9,8.1-2.25,12.21-.85,10.21-4.38,13.83-14.72,14.44-14.14.83-19.68-6.18-15.14-19.44,3.98-11.64,13.18-17.73,24.16-21.42,15.33-5.15,30.99-5.74,46.65-1.78,18.09,4.57,28.73,18.08,29.01,37.44.38,26.31.15,52.62.2,78.93,0,2.19-.09,4.42.32,6.55.98,5.16,3.99,7.53,9.44,6.43,1.75-.35,3.62-.05,6.1-.05-10.61,15.86-34.78,15.95-45.84.39-10.13,10.98-23.12,13.84-37.4,12.85-22.22-1.55-37.72-13.94-41.12-33.03-3.86-21.69,6.55-41.96,26.57-50.6,16.15-6.97,32.74-7.41,51.6-.6ZM705.04,573.09c0-8.33.24-16.68-.18-24.99-.1-1.94-2.16-5.09-3.78-5.43-11.06-2.27-21.51-.81-29.79,7.69-12.6,12.93-15.73,41.98-6.41,57.37,5.16,8.51,13.9,11.93,23.84,9.32,10.07-2.65,16.04-9.67,16.28-19.62.19-8.11.04-16.23.05-24.34Z"/>
    <path fill="#FFFBEB" d="M653.04,687.18c-.8,30.88,17.88,67.59,53.25,63.07,4.52-.62,9.01-2.02,13.3-4.18,3.28-1.27,11.97-7.99,13.97-5.85,1.01,3.59-5.11,10.71-8.76,14.31-14.14,14.16-36.06,17.46-55.42,13.58-24.82-4.33-40.21-23.72-46.13-46.97-7.18-26.41-2.57-59.76,16.77-79.9,20.3-20.66,68.56-24.68,88.14-1.24,5.08,5.71,8.93,14.84,6.33,21.69-3.07,8.85-15.33,11.11-22.2,5.23-6.91-5.5-8.84-15.69-12.86-23.36-4.09-8.72-13.18-16.22-23.02-12.6-16.15,6.35-19.2,25.99-21.82,41.18-.8,4.91-1.42,9.86-1.54,14.83v.2Z"/>
    <path fill="#FFFBEB" d="M743,632.15c-.39-.36-1.02-.48-1.58-.5-4.33-.29-8.66.83-12.4-1.02-2.15-1.35-.5-4.13,1.47-4.79,18.63-5.97,31.12-19.55,41.87-34.82.46-.73,1.53-2.04,2.18-1.73.64.4.62,1.32.65,2.04.03,10.88-.05,21.86.03,33.13,0,1.61,1.29,2.15,2.71,2.07,7.83,0,15.24,0,22.6,0,1.18-.05,3.09.32,2.94,1.78-.43,1.97-3.25,3.23-5.25,3.22-6.44.22-12.99.11-19.97.11-2.67-.12-2.81,1.91-2.88,4.19-.28,34.41-.11,68.86-.07,103.28.1,10.25,5.47,19.59,17.21,16.73,1.62.09,14.8-6.62,11.86-1.87-10.44,16.66-37.41,21.92-51.39,10.65-5.91-4.76-8.37-11.17-9.09-18.39-.72-35.07-.04-70.17-.27-105.23,0-2.45.02-4.6-.01-7.17-.03-.65-.17-1.21-.5-1.58l-.1-.1Z"/>
    <path fill="#FFFBEB" d="M438.51,484.52c-3.05-1.81-17.42,2.1-14.79-4.37.64-1.33,2.02-1.89,3.36-2.31,19.1-5.99,30.75-21.41,42.95-37.3.75,12.45,0,24.49.28,36.43.03.57.15,1.05.44,1.38.42.54,1.35.62,2.07.63,8.28.02,16.17-.03,23.94.03,1.05.01,2.32.72,2.15,1.83-.81,2.33-3.97,3.1-6.2,3.15-6.4.19-12.87.09-19.63.08-3.49-.1-2.26,4.55-2.59,6.7-.05,32.39-.01,64.81-.02,97.21-.27,6.08.62,14.3,5.42,18.26,3.73,3.26,9.18,3.8,15.48,1.3,1.22-.46,8.51-3.42,7.26-.18-.75,2.05-1.97,3.99-3.63,5.47-14.21,14.59-46.89,15.91-54.08-6.29-2.31-7.98-1.51-16.72-1.82-24.94-.47-32.29.86-64.9-.48-96.97l-.1-.1Z"/>
  </g>
  <g id="Leaf_Right">
    <path fill="#FFFBEB" d="M911.49,678.06c-1.53-1.69-.32-5.59.27-7.95,2.62-9.44,5.26-18.84,6.67-28.63,1.72-13.64-.03-29.25,19.01-27.37,22.57,6.98,37,4.89,51.36-15.3,6.93-9.08,11.74-19.43,13.76-30.72,1.88-10.62,1.04-20.4-9.59-8.26-12.53,13.12-33.4,5.65-47.49,16.01-5.94,4.17-9.34,10.67-12.07,17.26-3.35,9.61-13.7,17.1-13.3,1.39-.23-13.54-2.21-27.14-3.59-40.57-2.03-10.03,3.03-20.96,13.9-22.49,14.04-.96,25.07-1.66,34.66-13.54,11.05-16.14,14.98-37.65,10.08-56.63-5.57-19.21-10.46,6.31-17.68,9.89-18.3,13.11-37.28,12.75-38.12,41.08.19,4.1-4.32,20.02-8.55,11.36-3.96-14.19-6.23-29.03-12.16-42.66-4.66-8.54-4.56-18.59,5.99-22.2,5.29-2.01,11.37-2.42,16.27-5.39,7.77-4.99,14.44-12.84,17.8-21.28,4.97-15.58,6.36-32.64-.37-47.95-1.03-2.77-3.92-10.21-6.36-4.52-7.17,30.91-44.05,23.41-40.43,59.92.15,3.63.75,12.99-3.45,13.25-2.08-.38-3.61-3.19-4.84-5.17-4.06-7.03-8.56-14.02-12.76-21.06-3.26-5.31-6.1-11.71-3.78-17.93,4.86-12.23,21.52-13.36,27.58-24.98,10.09-13.95,1.38-62.04-13.25-70.35-4.84-.76-2.66,11.92-4.34,15.09-2.42,10.04-10.33,16.37-16.59,24.47-12.8,16.23-5.5,26.46-1.66,43.43.35,15.07-14.43-11.33-17.72-13.66-14.88-15.28-10.17-25.34,6-36.41,24.31-18.85,9.73-53.67-7.54-72.33-2.79-3.16-11.71-12.86-13.33-5.8,4.36,26.13-8.92,29.84-14.83,51.86-3,11.75,5.34,21.33,9.48,31.43,2.95,13.13-16.19-6.24-17.5-9.53-4.72-8.06-2.3-18.29-5.36-26.92-6.76-22.16-32.04-29.27-51.51-36.24-15.79-6.37-22.39-5.95-16.02,13.26,7.69,22.28,18.44,52,45.97,53.79,13.79.13,20.38,2.74,30.38,12.56,3.51,2.69,15.94,13.57,3.59,11.75-7.07-1.9-13.47-7.08-20.95-8.01-16.56-3.62-27.97,11.35-42.32,16.29-4.41,1.5-9.09,1.63-13.71,1.28-4.39-.45-10.26.23-6,5.68,13.23,16.6,44.75,29.32,65.15,20.89,9.88-3.36,14.78-12.62,20.66-20.37,6.14-7.51,15.19-5.9,20.1,1.78,5.28,6.76,10.47,13.63,15.04,20.84,8.09,14.54-8.23,8.73-15.1,4.63-7.05-3.31-15.24-4.06-22.64-1.53-13.9,5.23-25.31,19.24-41.65,16.5-17.45-1.79-.34,12.25,5.13,16.19,11.48,8.05,25.55,12.26,39.48,13.19,10.69.15,21.37-4.58,27.81-13.13,4.98-8.09,14.54-21.96,23.12-9.55,4.86,7.96,8.98,16.44,13.4,24.65,1.31,2.71,3.05,5.85,2.81,8.83-2.15,7.88-12.73.74-16.82-2.73-21.11-17.36-34.05-1.86-55.28,1.32-6.37,2.28-25.78-8.8-20.41,2.99,10.31,19,33.52,34.09,55.29,34.22,15.38-.95,20.06-10.16,31-17.83,7.78-4.76,16.14-.04,18.47,8.05,4.91,13.99,8.21,29.42,8.5,44.29-3.18,11.36-18.74-12.96-25.13-14.11-15.3-8.55-32.04,4.19-48.08-.1-4.39-.87-8.79-3.96-12.95-4.98-10.28-.63,6.26,23.53,9.31,26.39,13.97,15.43,37.77,30.34,57.78,16.94,10.4-8.03,23.06-13.63,25.69,4.17,1.97,10.56,2.03,21.42,2.24,32.19-.15,5.51.61,11.66-1.52,16.79-4.92,8.62-13.87-.94-17.23-6.56-4.17-6.03-9.79-11.31-16.86-13.62-10.7-3.75-22.46.87-33.51-.4-9.26.48-21.82-12.6-23.3-6.64-.85,5.89,2.86,12.13,5.47,17.3,8.36,14.9,21.07,28.88,38.12,33.32,5.2,1.35,10.74,1.38,15.86-.31,8.97-3.15,28.6-16.41,29.3,1.77-2.53,32.98-17.07,63.51-27.12,94.61-9.22,31-17.74,63.82-14.91,96.28,3.35,10.69,11.66,4.14,12.51-4.32,3.85-21.67,6.91-43.49,10.79-65.16,2.39-14.45,6.17-28.59,10.23-42.65,2.98-8.23,3.5-18.39,9.62-25.02,7.82-7.58,19.45-2.74,27.81,1.57,27.36,11.03,54.14-23.48,59.54-47.27,1.53-7.76-1.57-9.92-7.82-4.94-22.55,18.38-48.6-5.77-64.86,25.4-2.03,3.54-6.64,10.72-10.55,8.98l-.06-.06Z"/>
  </g>
  <g id="Leaf_Left">
    <path fill="#FFFBEB" d="M265.5,677.48c1.51-1.69.32-5.58-.26-7.93-2.59-9.42-5.18-18.8-6.57-28.57-1.7-13.61.03-29.18-18.73-27.31-22.23,6.96-36.45,4.88-50.59-15.27-6.82-9.06-11.56-19.39-13.56-30.65-1.85-10.59-1.03-20.35,9.44-8.25,12.34,13.09,32.9,5.64,46.78,15.97,5.85,4.16,9.2,10.65,11.89,17.22,3.3,9.59,13.5,17.06,13.1,1.38.22-13.51,2.18-27.07,3.54-40.47,2-10.01-2.98-20.92-13.69-22.44-13.83-.95-24.7-1.65-34.14-13.51-10.88-16.1-14.76-37.57-9.93-56.5,5.49-19.16,10.31,6.29,17.41,9.87,18.02,13.08,36.72,12.72,37.55,40.99-.19,4.09,4.26,19.98,8.42,11.34,3.9-14.16,6.13-28.96,11.98-42.57,4.59-8.52,4.49-18.55-5.9-22.15-5.21-2-11.2-2.42-16.02-5.38-7.65-4.98-14.22-12.81-17.54-21.23-4.9-15.55-6.26-32.56.36-47.85,1.01-2.77,3.86-10.19,6.27-4.51,7.06,30.84,43.39,23.36,39.82,59.78-.15,3.63-.74,12.96,3.4,13.22,2.05-.38,3.56-3.18,4.77-5.16,4-7.01,8.43-13.99,12.57-21.01,3.21-5.3,6.01-11.69,3.72-17.89-4.79-12.2-21.2-13.32-27.17-24.93-9.94-13.92-1.36-61.9,13.05-70.19,4.77-.76,2.62,11.89,4.27,15.06,2.38,10.02,10.17,16.33,16.35,24.41,12.61,16.2,5.42,26.4,1.63,43.33-.35,15.04,14.21-11.31,17.46-13.63,14.66-15.24,10.02-25.29-5.91-36.33-23.95-18.81-9.58-53.55,7.43-72.17,2.75-3.15,11.53-12.83,13.13-5.79-4.29,26.07,8.79,29.77,14.61,51.74,2.95,11.72-5.26,21.28-9.33,31.36-2.91,13.1,15.94-6.22,17.23-9.51,4.65-8.04,2.27-18.25,5.28-26.86,6.66-22.11,31.56-29.21,50.74-36.16,15.55-6.35,22.06-5.93,15.78,13.23-7.58,22.23-18.17,51.88-45.28,53.67-13.59.12-20.08,2.73-29.92,12.54-3.45,2.68-15.7,13.54-3.53,11.72,6.96-1.9,13.27-7.06,20.64-7.99,16.32-3.62,27.55,11.32,41.69,16.26,4.34,1.5,8.96,1.62,13.5,1.28,4.32-.45,10.11.23,5.91,5.67-13.04,16.56-44.08,29.25-64.18,20.84-9.73-3.36-14.56-12.59-20.36-20.33-6.05-7.49-14.97-5.88-19.8,1.78-5.2,6.74-10.31,13.6-14.81,20.79-7.97,14.51,8.11,8.71,14.87,4.62,6.94-3.3,15.01-4.06,22.3-1.53,13.69,5.22,24.93,19.19,41.02,16.46,17.19-1.79.33,12.23-5.06,16.15-11.31,8.03-25.17,12.23-38.89,13.16-10.53.15-21.05-4.57-27.39-13.11-4.9-8.07-14.33-21.91-22.78-9.53-4.79,7.94-8.85,16.41-13.2,24.59-1.29,2.7-3.01,5.83-2.77,8.81,2.12,7.86,12.54.73,16.57-2.72,20.79-17.32,33.54-1.86,54.45,1.32,6.28,2.27,25.4-8.78,20.11,2.98-10.16,18.95-33.02,34.01-54.47,34.14-15.15-.95-19.76-10.13-30.54-17.79-7.66-4.75-15.9-.04-18.19,8.03-4.84,13.96-8.09,29.36-8.37,44.19,3.13,11.34,18.46-12.93,24.76-14.08,15.07-8.53,31.56,4.18,47.36-.1,4.32-.87,8.66-3.95,12.75-4.97,10.13-.63-6.16,23.47-9.17,26.33-13.76,15.39-37.2,30.27-56.92,16.9-10.25-8.01-22.72-13.6-25.3,4.16-1.94,10.54-2,21.37-2.2,32.12.14,5.5-.6,11.63,1.5,16.75,4.85,8.6,13.66-.94,16.98-6.54,4.11-6.02,9.65-11.28,16.61-13.59,10.54-3.74,22.12.86,33.01-.4,9.12.47,21.49-12.57,22.95-6.62.84,5.88-2.82,12.1-5.39,17.26-8.23,14.87-20.75,28.81-37.55,33.25-5.12,1.35-10.58,1.37-15.62-.31-8.84-3.15-28.18-16.38-28.86,1.77,2.49,32.9,16.81,63.37,26.71,94.4,9.08,30.93,17.48,63.68,14.69,96.06-3.3,10.66-11.48,4.13-12.32-4.31-3.79-21.62-6.81-43.39-10.63-65.01-2.35-14.41-6.08-28.53-10.08-42.55-2.94-8.21-3.45-18.35-9.48-24.96-7.7-7.56-19.16-2.73-27.39,1.57-26.95,11-53.33-23.43-58.65-47.16-1.51-7.74,1.55-9.9,7.7-4.93,22.21,18.34,47.88-5.76,63.89,25.35,2,3.53,6.54,10.7,10.39,8.96l.06-.06Z"/>
  </g>
  <g id="New_Rose">
    <path fill="#FFFBEB" d="M705.49,336.04c-1.47,3.47-1.38,6.9-4.38,9.7-6.14,5.38-16.6,4.55-23.59,1.65-.55-.25-.99-.53-1.39-.88-2.11-2.3-8.85-7.45-15.76-8.22-2.2-.35-4.56-.37-6.58-.16-.6.05-1.12.02-1.46-.25-.85-.56-.55-2.79-.22-4.34,3.88-18.16,37.3-8.43,42.2-24.66.83-2.88-.08-5.05-.55-8.28-.43-2.34-.93-4.93-1.36-7.53-1.32-7.86-3.71-23.77,7.89-13.22,1.83,1.61,3.15,3.09,4.75,4.83,6.51,7.27,13.13,12.81,15.4,21.96,1.23,4.63,1.88,10.58-1.05,15.03-3.94,5.43-11.42,7.29-13.81,14.14l-.09.22Z"/>
    <g>
      <path fill="#FFFBEB" d="M580.47,263.29c1.41,17.85,30.15,28.42,42.12,38.23.14.12.28.24.41.37,6.65,6.44,13.08,13.5,21.91,16.77,1.25.46,2.31,1.35,2.95,2.52,11.01,20.19-25.31,29.37-39.57,35.42l-24.57-7.39c-21.66-9.12-8.51-27.76-12.96-43.5-.11-.38-.26-.75-.44-1.1-8.85-17.1-19.96-44.53.44-58.03.25-.16.54-.27.78-.44,4.33-3.04,4.5,2.9,7.74,9.17"/>
      <path fill="#FFFBEB" d="M613.04,372.84c7.29,9.14,11.12,20.15,14.04,31.38,1.04,3.62,2.19,7.2,3.28,10.81.57,2.02,1.36,4.16.89,6.22-6.52,16.56-18.77,22.84-32.99,31.53-3.64,2.13-8.24,4.21-12.39,4.35-2.9-.24-5.43-2.94-7.89-5.28-4.12-3.84-8.06-7.44-11.85-11.69-4.58-5.54-14.14-16.12-17.81-20.94-.44-.58-.77-1.1-.97-1.87-.95-6.89,2.51-12.92,9.32-14.52,5.3-.91,9.77-3.93,13.85-7.24,8.33-6.54,14.18-16.61,17.33-26.67.95-3.02.84-6.51,3.2-8.81,2.77-2.8,5.57-3.3,8.55-.09"/>
      <path fill="#FFFBEB" d="M501.56,275.94c3.37-1.62,14.86.31,20.98,7.35,1.06,2.35,1.4,5.04,2.35,7.49,1.2,3.11,2.93,5.72,5.01,7.86,4.32,4.52,10.65,6.99,16.83,8.73,7.09,2.18,14.33,3.79,21.47,5.77,1.66.51,1.67,2.08,1.16,3.56-.44,1.53-.82,2.96-1.17,4.49-1.23,6.98-4.18,15.36,1.99,20.95.17.16.22.28.09.35-5.13.85-10.3,2.05-15.51,2.27-4.83.21-9.74-1.17-14.63-1.68-7.98-.47-16.83-.84-23.6,4.12-.7.43-1.72.27-2.56.03-6.2-1.77-11.99-3.26-17.33-4.98-4.89-2.58-9.38-4.68-13.21-8.35-14.23-13.64-2.27-50.94,18.03-57.93l.08-.03Z"/>
      <path fill="#FFFBEB" d="M657.47,416.27c-6.83-2.62-14.09-2.25-21.21-2.25-4.13-.05-3.87-5.03-4.77-8-3.03-13.78-8.61-26.22-17.35-37.24-1-1.4-2.5-3.24-2.57-4.87l.06-.09c.26-.27.81-.29,1.24-.29,6.64-.03,13.08,1.34,18.64,4.97,5.03,3.11,10.52,4.66,16.1,6.17,8.08,2.77,16.67,2.96,24.84,1.83,1.96-.21,3.91-.43,5.87-.62,7.18-.49,13.69-4.52,19.67-8.55,2.18-1.6,4.2.95,6.26,1.62,4.45,2.34,8.56,8.76,7.43,14.08-1,4.7-3.63,9.86-11.05,19.97-3.2,4.36-5.6,7.6-9.59,11.49-4.2,4.1-8.22,7.03-11.33,9.04"/>
      <path fill="#FFFBEB" d="M518.86,349.53c1.41-.46,10.09-3.23,16.19-3.64,1.1-.07,2.44-.19,4.22.05,3.09.42,4.82,1.66,11.27,2.16,12.58.97,15.54-3.03,23.23,0,6.93,2.73,9.74,8.02,9.92,8.44.13.3.23.56.29.73.11.32.19.61.26.86,0,0,.11.41.2.81.04.18,1.34,11.97-8.95,25.19-6.05,7.78-16.87,17.02-25,17-2.53,0-3.44.27-7,1-7.99,1.63-14.1,4.68-18,7-4.39-4.68-7.69-8.87-10-12-4.48-6.07-7.03-9.51-9-15-.9-2.52-2.51-7.03-2.42-13.01.04-2.56.07-4.94,1.11-7.74,2.09-5.65,6.67-8.71,8.85-9.96"/>
      <path fill="#FFFBEB" d="M550.69,217.64c14.99-1.95,30.63-20.56,42.83-3.83.63.89.69,1.61-.18,2.16-6.76,4.1-11.1,10.14-14.1,17.36-.36.76-.96,1.24-1.75,1.55-19.17,7.2-26.5,29.34-18.21,48.31.34.79.25,1.1-.46.85-9.45-3.96-21.32-5.39-28.88-12.28-.62-.56-1.01-1.26-1.15-2.08-2.9-16.19-6.66-42.66,11.15-48.04"/>
      <path fill="#FFFBEB" d="M626.56,228.86c7.74-5.53,4.34-3.71,7.88-5.19,4.09-1.71,8.2-1.39,12.61-.48,11.09,2.27,20.17,8.18,28.88,14.81,2.91,2.21,5.17,5.28,7.69,7.99,1.85,1.99,4.08,2.84,6.77,2.52,2.57-.31,3.94,1.27,4.08,3.4.58,8.87-1.02,17.49-3.56,25.95v.02c-.31.99-1.62,1.2-2.22.36-2.87-4.04-6.77-5.97-11.94-6.01-.92,0-2.52-2.29-2.6-3.59-.08-1.34-.34-2.56-.74-3.7-1.47-4.14-4.71-6.66-5.22-6.99-1.14-.74-2.33-1.22-2.92-1.44-.96-.35-1.85-.57-2.76-.73-5.54-1-11.63-.37-11.63-.37-2.75.28-4.76.71-6.64,1.11-3.86.82-5.77,1.54-8.85,2.21-.48.1-2.16.47-4.43,1.11,0,0-.02,0-.02,0-.36.1-3.62,1.02-7.16,1.67-.52.1-1.21.21-1.97-.07-1.01-.38-1.76-1.3-2.21-2.52-2.32-6.37-3.24-12.54-1.34-18.33.64-1.94,2.08-5.03,5.02-8.21"/>
      <path fill="#FFFBEB" d="M708.4,345.53c.42,1.92-.56,3.97-1.23,5.79-3.57,7.52-9.07,13.67-16.49,17.69-6.45,4.03-13.99,4.48-21.41,5.07-19.44,2.23-30.06-2.56-46.88-11.14-3.2-1.57-6.76-1.19-10.18-1.53-2.87-.75-1.93-2.26.65-3.31,6.99-2.9,14.47-4.61,21.16-8.2,14.03-7.83,25.84-12.85,39.36-.79,8.01,6.11,19.76,4.22,28.31.31,1.8-.57,5.11-5.39,6.65-3.99l.06.11Z"/>
      <path fill="#FFFBEB" d="M595.65,280.56c-7.49-3.69-10.94-10.13-12.91-17.86-1.62-6.34-1.06-13.3-5.41-18.93,7.41-.67,12.37,3.01,16.74,8.22,3.27,3.9,6.66,7.8,10.5,11.11,4.85,4.18,10.74,6.05,17.23,5.11,1.54-.22,3.07-.9,4.45-1.67,3.17-1.77,6.68-.72,8.26,2.61,2.18,4.6,2.94,9.63,1.89,14.39-1.81,8.26,1.25,14.86,5.55,21.31,2.15,3.23,4.45,6.36,6.57,9.61.47.71.45,1.74.65,2.62-.28.29-.56.59-.84.88-3.66-2.11-7.64-3.83-10.92-6.43-5.33-4.21-10.56-8.66-15.15-13.64-3.92-4.25-8.97-6.24-13.73-8.91"/>
      <path fill="#FFFBEB" d="M668.37,276.92c-1.36,2.22-1.44,2.91-1.6,4.31-.06.57-.05,1.04-.05,1.04.04,1.13.43,1.82.4,3.96-.01.94-.03,2.06-.4,3.44-.65,2.42-2.05,4.55-4.02,6.39-.78.73-5.04,5.04-11.78,6.22-3.14.55-4.52.02-5.02-.2-1.93-.85-3.16-2.61-4.01-3.83-.69-.99-1.11-1.84-1.46-2.56-.81-1.68-1.28-3.15-1.57-4.21,0,0-.73-2.92-.58-5.52,0-.09,0-.16.01-.22.75-5.11.59-4.2.98-6.08.44-2.12.8-4.14.59-6.37-.29-3.12-1.7-5.32-2.17-6.29-.6-1.26-2-2.13-2.89-3.25-.32-.28-.34-.67-.18-.83,0,0-.18-.06,0,0,3.06-1.45,8.33-3.46,15.1-3.67,5.87-.19,11.51-.37,15.38,3.69,4.04,4.23,4.74,11.56,3.26,13.97Z"/>
      <path fill="#FFFBEB" d="M620.71,226.17c-9.3,7.89-10.84,22.76-5.84,32.09.7,1.33-1.84.13-2.86-.11-5.81-1.92-10.99-5.02-14.92-9.9-4.14-5.73-6.31-11.02-14.58-11.41-1.03,0-1.93-.44-1.49-1.6,2.43-7.17,6.53-12.87,12.67-16.83,6.23-3.1,13.74-5.31,20.83-3.25,4.77,1.29,14.71,7.44,6.33,10.94l-.13.08Z"/>
      <path fill="#FFFBEB" d="M517.39,239.95c-4.72,5.33-6.36,12.41-6.58,19.44-.27,8.05,3.8,15.72,10.09,20.59,2.5,2.06,4.68,4.81,5.94,7.86,1.57,3.97,3.25,7.94,6.84,10.61,8.69,6.11,24.48,10.11,33.12,12.54,6.65,1.59,1.72-6.43.17-9.21-2.25-4.09-3.67-9.3-8.35-11.07-4.12-1.55-7.68-2.63-12.32-4.39-6.88-2.59-13.14-4.72-17.82-10.39-3.24-4.01-2.13-8.79-2.76-13.5-1.14-7.23-1.24-14.61-.03-21.98.08-1.58,1.09-4.11-.61-4.93-1.39-.53-5.54,2.14-7.53,4.26l-.16.17Z"/>
      <path fill="#FFFBEB" d="M711.35,273.49c.28,1.03-.8,1.89-1.74,1.41-1.81-.92-3.53-1.8-5.26-2.66-2.89-1.45-3.65-3.43-3.48-6.54.26-4.8.21-9.63,0-14.44-.11-2.65-2.77-5.08-5.45-4.99-4.05.13-6.62-2.18-8.78-4.98-5.43-7.03-12.59-11.82-20.44-15.45-5.12-2.37-10.77-3.58-16.13-5.47-1.33-.47-2.84-1.31-3.57-2.44-1.85-2.86-3.47-5.86-5.3-9.16-.52-.93.31-2.03,1.35-1.8.47.1.89.22,1.28.4,7.82,3.56,16.35,5.56,23.44,10.7.73.53,1.56.98,2.25,1.47,5.28,3.77,10.81,5.98,15.69,8.04,7.08,2.99,11.43,5.66,14.22,7.74,7.29,5.42,8.41,13.33,9.83,21.16.97,5.31,1.22,10.74,1.89,16.11.04.3.1.6.18.9Z"/>
      <path fill="#FFFBEB" d="M676.66,277.31c.45.07,4.36.78,6.48,4.17,2.29,3.67.82,7.93.1,10.58-2.14,7.79-7.82,12.34-14.09,16.46-2.43,1.6-5.09,2.86-7.43,4.56-2.76,2.01-5.33,4.27-8.03,6.49-.29.24-.74.14-.89-.21-1.85-4.33-3.81-8.94-5.93-13.92-.17-.41.15-.84.59-.81,6.95.58,12.22-3.21,16.68-8.05,2.47-2.68,6.86-6.69,6.39-11.3-.29-2.76-2.01-4.18-1.14-5.93,1.08-2.15,4.94-2.45,7.3-2.06Z"/>
      <path fill="#FFFBEB" d="M625.77,217.33c-5.48-4.01-10.01-6.49-13.01-7.95-2.88-1.4-4.7-1.84-6.83-1.74-1.83.09-3.66.62-5.48,1.65-1.48.84-2.07.83-2.93.73-1.14-.14-2.05-.97-3.84-2.64-2.3-2.15-2.39-2.84-2.4-3.17,0-1,.72-1.77,1.22-2.25,6.76-6.51,14.75-8.52,23.95-7.59,8,.81,12.57,6.4,17.64,11.42,1.12,1.12,1.99,2.51,2.88,3.84.98,1.47,1.41,2.41,1.16,3.13-.13.38-.46.89-3.09,1.85-2.28.84-3.84,1.12-6.15,1.76-1.36.38-2.45.74-3.13.97Z"/>
    </g>
    <path fill="#FFFBEB" d="M657.88,319.61c2.84-1.99,5.68-3.99,8.52-5.98,2.95-2.06,5.87-4.18,8.86-6.18,7.64-5.11,10.62-12.69,11.57-21.68,2.76,6.45,4.93,12.78,4.81,19.68-.08,4.48-1.25,6.16-5.69,7.13-4.96,1.08-10.02,1.73-14.98,2.82-2.41.53-4.71,1.6-7.03,2.5-1.92.74-3.79,1.6-5.69,2.4-.13-.23-.26-.46-.39-.69Z"/>
  </g>
  <g id="collective_text">
    <path fill="#FFFBEB" d="M478.97,143.86c-6.06,4.56-13.68,10.31-21.79,16.41-1.79-4.44-3.41-8.48-5.31-13.2-1.12,2.68-1.9,4.81-2.88,6.84-6.02,12.4-24.07,22.18-38.08,20.54-11.28-1.32-17.6-8.48-21.42-18.15-5.32-13.49-10.39-27.09-15.57-40.64-1.92-5.01-3.72-10.06-5.82-14.99-2.5-5.88-5.05-7.29-11.49-7.2-.98.01-1.98-.82-2.97-1.26.75-.81,1.34-2.01,2.26-2.36,9.31-3.48,18.67-6.82,28.51-10.38.72,1.67,1.44,3.19,2.04,4.76,7.71,20.18,15.4,40.36,23.11,60.54.62,1.62,1.27,3.23,2,4.8,4.85,10.42,12.51,14.17,22.4,10.99,10.22-3.29,16-12.78,13.95-22.95-.28-1.38-.63-2.77-1.13-4.09-6.77-17.83-13.57-35.66-20.37-53.48-2-5.24-5.27-8.57-11.63-7.65-1.01.15-2.19-.85-3.29-1.31,0-.47.02-.95.03-1.42,10.26-3.75,20.51-7.51,31.14-11.4,4.59,11.99,9.03,23.59,13.46,35.2,3.93,10.31,7.76,20.66,11.8,30.94,1.9,4.83,3.92,9.74,10.87,11.45v-15.74c.45-.08.89-.15,1.34-.23.52.81,1.14,1.57,1.53,2.43,5.85,13.02,22.13,23.31,36.61,23.06,1.44-.03,2.91-.12,4.31-.42,8.04-1.73,14.16-6.74,14.74-12.56.78-7.77-4.12-12.51-10.5-15.42-8.58-3.91-17.55-7-26.35-10.45-9-3.53-17.89-7.23-24.32-14.8-9.49-11.16-8.13-26.99,3.11-36.37,13.68-11.42,38.3-14.09,54.26-6.03,5.16,2.61,9.01,5.8,8.98,12.13-.01,2.79.9,5.58,1.7,10.07-2.42-1.42-3.98-2.08-5.21-3.11-6.32-5.28-12.08-11.39-18.99-15.75-4.29-2.71-10.31-3.96-15.51-3.88-11.06.18-16.72,9.55-12.74,19.68,2.66,6.77,8.08,10.97,14.56,13.74,7.06,3.02,14.41,5.39,21.56,8.22,5.06,2,10.24,3.88,14.94,6.54,16.03,9.08,18.15,27.29,4.5,39.59-12.3,11.08-27.64,13.93-43.61,12.85-7.82-.53-15.48-3.39-24.68-5.54Z"/>
    <path fill="#FFFBEB" d="M350.08,210.69c-12.36,8.82-23.92,17.06-36.94,26.35.15-2.46-.31-4.25.4-5.02,3.77-4.12,3.6-8.35.54-12.49-12.84-17.34-25.49-34.84-38.86-51.8-7.98-10.12-17.81-11.27-27.02-4.63-6.45,4.64-9.13,12.85-6.33,21.68,1.26,3.97,3.42,7.83,5.9,11.23,10.46,14.37,21.19,28.55,31.81,42.8,3.97,5.33,8.01,10.28,15.91,6.23.6-.31,2.06.97,3.78,1.85-12.34,8.79-23.89,17.03-36.97,26.34.19-2.55-.2-4.22.48-5.16,3.61-4.99,4.12-7.89.48-12.85-12.1-16.51-24.38-32.89-36.7-49.25-3.3-4.38-7.57-6.2-13.11-3.67-.78.36-2.39-.1-3.07-.73-.48-.45-.43-2.12.05-2.77,6.38-8.68,12.88-17.27,19.56-26.17,1.92,2.34,3.56,4.34,5.29,6.46,13.19-29.54,27.92-38.34,52.38-31.34.17-15.7,8.25-26.75,21.58-34.51,14.29-8.32,26.94-6.1,36.97,6.89,11.64,15.08,22.86,30.47,34.28,45.72,1.24,1.65,2.46,3.33,3.86,4.84,3.12,3.38,6.79,4.46,11.32,2.66,1.2-.48,2.82.06,4.25.13l.19,1.58c-11.66,8.31-23.33,16.63-34.99,24.94-.44-.1-.89-.2-1.33-.3.14-1.3-.17-2.88.48-3.84,3.75-5.57,3.99-8.01-.13-13.66-9.18-12.55-18.54-24.98-27.85-37.44-3.14-4.19-6.16-8.49-9.58-12.45-7.6-8.8-17.72-11.34-25.65-6.72-8.31,4.84-11.56,15.54-7.61,25.9,1.05,2.76,2.63,5.41,4.39,7.81,10.74,14.56,21.6,29.03,32.41,43.54,3.98,5.33,8.05,10.25,15.93,6.09.61-.33,2.1.92,3.89,1.78Z"/>
    <path fill="#FFFBEB" d="M866.53,230.1c1.25-.23,2.69-.97,3.71-.6,7.19,2.63,9.44,2.32,14.65-3.56,14.65-16.55,29.19-33.2,43.76-49.82,9.75-11.12,19.57-22.18,29.23-33.38,5.45-6.32,5.41-9.3.47-15.88.84-2.71,2.45-3.17,5.08-2.02,9.55,4.15,19.16,8.16,29.28,12.45-1.36,1.66-2.47,3.11-3.68,4.49-27.89,31.8-55.8,63.59-83.68,95.4-1.88,2.15-3.81,4.3-5.35,6.68-2.85,4.4-2.3,8.08,1.34,11.46,3.57,3.3,7.55,3.6,11.83.76,1.46-.97,2.81-2.12,4.08-3.32,26.27-24.88,52.53-49.76,78.76-74.67,6.84-6.49,7.22-9.02,2.49-17.74,1.67-.36,3.46-1.38,4.45-.88,9.69,4.93,19.24,10.11,30.44,16.08-2.11,1.3-3.67,1.94-4.8,3-31.39,29.67-62.74,59.38-94.07,89.1-1.84,1.75-3.63,3.59-5.18,5.59-2.22,2.88-2.42,5.97-.75,9.32.62,1.24.36,2.89.51,4.35-1.4-.71-3.08-1.13-4.15-2.17-9.8-9.57-19.22-19.53-29.31-28.79-9.26-8.5-19.22-16.27-28.87-24.37-.08-.49-.16-.99-.24-1.48Z"/>
    <path fill="#FFFBEB" d="M0,489.46c14.23,1.77,27.76,3.45,41.28,5.13,32.43,4.03,64.85,8.1,97.28,12.05,6.9.84,10.23-.85,12.02-5.35,2.63-6.61-.29-11.78-8.11-13.61-11.58-2.71-23.22-5.15-34.85-7.68-7.7-1.68-15.42-3.25-23.09-5-6.19-1.41-11.57-1.23-14.54,5.51-.31.7-1.78,1.37-2.59,1.25-.77-.12-1.9-1.23-1.98-2-1.09-10.62-2.03-21.26-3.06-32.56,10.53,2.25,20.52,4.36,30.49,6.53,17.44,3.79,34.86,7.61,52.29,11.41,6.32,1.38,12.33,2.05,15.24-5.6.21-.55,1.48-.7,2.26-1.04.43,1.02,1.37,2.14,1.19,3.05-1.13,5.71-2.76,11.33-3.76,17.06-3.33,19.21-6.47,38.46-9.69,57.69-.26,1.53-.55,3.05-2.02,5.33-.82-1.05-2.13-2.01-2.39-3.18-1.41-6.41-3.35-8.45-10.15-9.32-22.67-2.9-45.35-5.71-68.03-8.55-13.42-1.68-26.84-3.3-40.25-5.04-7.23-.94-14.48-2.27-17.41,7.01-.16.5-1.66,1.06-2.28.86-.87-.29-2-1.18-2.15-1.97-1.97-10.46-3.78-20.95-5.73-31.98Z"/>
    <path fill="#FFFBEB" d="M142.46,605.64c10.69,8.74,13.11,20.37,11.23,33.2-1.65,11.25-7.21,19.99-18.71,23.66-12.3,3.92-24.21,2.64-33.87-6.26-12.17-11.21-14.94-25.56-12.25-41.22.16-.92.37-1.83.54-2.75.02-.12-.11-.26-.51-1.17-9.26,1.31-18.88,2.14-28.23,4.17-7.78,1.69-11.01,6.34-10.71,12.58.32,6.75,4.42,11.37,11.92,12.86,3.28.65,6.76,1.06,10.06.72,5.43-.55,8.15,2.07,9.66,6.56.59,1.77.98,3.68,1.04,5.54.28,7.71-2.95,10.63-10.78,9.99-7.12-.58-12.58-4.12-16.32-9.76-8.53-12.88-11.24-27.07-7.88-42.03,2.74-12.24,11.64-19.66,24.8-21.08,19.38-2.09,38.78-3.89,58.19-5.7,7.94-.74,8.73-1.59,7.57-9.4-.1-.64.44-1.96.58-1.95.99.09,2.14.21,2.88.77,7.32,5.49,12.38,23.93,1.54,30.27-.24.14-.36.48-.75,1.01ZM120.96,641.75c8.06-.96,15.68-1.96,22.15-6.73,5.52-4.07,7.26-10.37,4.96-16.88-2.42-6.83-7.76-11.25-14.1-10.79-12.66.92-25.3,2.16-37.92,3.5-1.28.14-3.18,1.67-3.46,2.85-2.16,9.23,3.28,20.22,12.27,23.84,5.09,2.05,10.72,2.85,16.1,4.21Z"/>
    <path fill="#FFFBEB" d="M909.38,160.61c-2.9,21.44-14.01,41.74-37.74,52.96-18.71,8.85-35.6,2.1-50.28-10.27-14.19-11.96-17.57-27.33-12.56-44.59,3.58-12.35,10.25-23.1,19.45-32.21,18.31-18.13,42.04-18.82,63.54-2.14,10.79,8.37,17.35,18.88,17.6,36.26ZM893.23,141.88c.14-17.44-13.66-25.92-27.08-19.07-3.38,1.72-6.59,4.03-9.33,6.62-13.87,13.15-23.86,28.88-30.66,46.43-2.06,5.32-3.2,11.33-3.15,17.02.12,12.22,11.81,19.69,23.4,15.09,4.65-1.85,9.14-4.8,12.78-8.21,13.58-12.69,23.38-28,30.38-44.97,2.02-4.9,2.93-10.23,3.67-12.92Z"/>
    <path fill="#FFFBEB" d="M1027.02,320.34c-12.54-16.87-24.83-33.39-37.26-50.1-9.65,6.54-17.51,14.25-21.91,24.78-6.4,15.34.18,30.87,16.45,38.32,4.72,2.16,10,3.16,15.97,4.99-1.52.69-2.53,1.44-3.64,1.6-19.31,2.82-34.85-2.51-45.4-19.5-9.81-15.8-9.6-33.62,2.01-49.11,11.95-15.94,27.86-26.23,48.42-27.64,19.89-1.36,36.49,9.71,43.64,27.89,6.32,16.08.87,33.47-14.38,45.87-1.11.9-2.3,1.72-3.9,2.91ZM992.77,268.32c7.95,10.69,15.46,20.81,23.22,31.26,8.64-7.21,16.44-14.43,20.69-24.44,4.25-10.03-.83-17.44-11.85-17.38-11.65.06-21.69,4.92-32.06,10.57Z"/>
    <path fill="#FFFBEB" d="M1081.54,705.65c3.78-20.3,7.5-40.33,11.29-60.7-12.46-2.38-24.36-2.64-35.77,2.58-16.66,7.62-21.65,27.98-11.18,44.97,1.2,1.95,2.58,3.8,3.26,6.68-.94-.35-2-.53-2.79-1.08-16.09-11.12-21.94-26.26-17.43-44.93,4.31-17.83,18.13-30.58,36.6-33.16,20.06-2.8,38.52,1.25,54.29,14.08,15.02,12.23,19.04,32.7,10.55,50.74-7.5,15.92-25.41,24.66-44.67,21.77-1.24-.19-2.45-.55-4.16-.94ZM1089.26,683.73c12.04,1.11,23.4,1.83,34.15-3,8.21-3.69,10.04-11.51,4.15-18.24-8.04-9.18-19.22-13.03-31.19-16.81-2.43,13-4.71,25.25-7.1,38.04Z"/>
    <path fill="#FFFBEB" d="M199.79,265.05c-11.64,16.93-23.29,33.87-35.18,51.17,11.57,7.89,23.75,13.25,37.96,11.24,15.08-2.14,25.63-16.57,24.75-33.02-.13-2.5-.72-4.97-1.02-7.47-.12-1.06-.02-2.15.64-3.27,7.96,11.99,12.18,24.56,6.4,38.57-9.73,23.56-33.41,34.41-58.07,26.3-17.45-5.74-31.29-16.16-39.66-32.52-9.12-17.82-4.07-38.97,12.01-52.01,14.2-11.51,35.8-11.17,52.17,1.01ZM183.59,282.34c-8.76-5.82-21.14-10.31-29.65-10.93-11.37-.83-17.46,6.73-13.4,17.1,4.14,10.58,12.21,18.16,21.16,25.61,7.43-10.79,14.58-21.17,21.89-31.78Z"/>
    <path fill="#FFFBEB" d="M1047.62,323.67c22.02-1.01,38.61,10.41,46.69,29.96,3.57,8.65,5.43,17.67,2.13,26.68-1.45,3.95-4.22,7.82-7.39,10.69-5.19,4.71-11.25,4.13-15.38-.47-4.53-5.05-4.43-11.29.45-16.08,3.29-3.24,6.92-6.15,10.14-9.45,3.55-3.63,6.03-7.83,4.85-13.18-1.39-6.27-6.53-10.56-14.04-10.85-17.25-.66-32.55,5.15-46.46,14.63-8.64,5.88-15.51,13.4-18.04,23.73-3.64,14.82,5.71,30.04,21.24,35.24,1.17.39,2.12,1.38,3.18,2.1-1.22.37-2.46,1.12-3.65,1.06-17.71-.94-29.74-9.73-36.69-25.52-7.14-16.22-5.83-31.5,6.19-44.96,13.12-14.69,30.31-21.84,46.79-23.58Z"/>
    <path fill="#FFFBEB" d="M801.41,163.78c-14.3,13.6-31.94,15.97-50.61,6.8-17.39-8.55-26.19-25.26-23.53-44.66,1.43-10.41,4.81-20.19,10.14-29.3,13.66-23.31,36.41-30.88,61.39-19.61,6.51,2.94,12.41,7.82,17.57,12.8,5.38,5.19,7.17,12.2,5.31,19.68-1.35,5.39-5.59,8.55-10.83,8.2-6.29-.41-11.13-4.54-11.32-10.2-.15-4.55.41-9.11.52-13.68.15-6.41-.86-12.49-7.58-15.58-6.72-3.09-12.97-1.12-17.63,3.8-15.97,16.88-25.72,36.33-21.68,59.95,3.4,19.81,24.74,29.89,43.52,21.39,1.35-.61,2.87-.86,4.32-1.27.14.56.27,1.13.41,1.69Z"/>
    <path fill="#FFFBEB" d="M682.81,123.78c-10.81,18.87-27.16,25.27-48.16,20.4-19.03-4.42-31.64-19.15-33.38-39.22-1.22-14.02.24-27.69,6.77-40.46,7.51-14.69,20.02-22.11,36.6-23.17,11.87-.76,23.12,1.16,33.02,8.1,6.34,4.44,10.47,10.22,10.56,18.12.07,5.77-3.38,9.76-8.91,10.59-6.12.92-11.46-1.82-13.09-7.17-1.32-4.36-2.03-8.89-3.13-13.31-1.61-6.46-4.56-12.01-12.09-13.07-7.15-1.01-12.36,2.72-15.45,8.41-10.21,18.77-14.07,38.63-6.67,59.12,7.96,22.03,31.92,27.86,50.51,13.01.91-.73,2.27-.92,3.42-1.36Z"/>
    <path fill="#FFFBEB" d="M1142.7,619.44c-1.19-.64-2.99-.98-3.46-1.95-3.82-7.81-10.94-11.8-18.38-15.3-25.95-12.22-51.99-24.26-77.93-36.51-1.88-.89-4.37-2.87-4.44-4.44-.07-1.5,2.35-3.66,4.18-4.62,25.98-13.56,52.05-26.97,78.11-40.4,6.8-3.51,13.25-7.3,15.36-15.33.17-.64,1.56-1.6,1.91-1.44.79.36,1.81,1.34,1.82,2.07.11,13.68.08,27.35.08,41.59-.76-.43-2.28-.81-2.92-1.76-2.69-3.93-6.3-4.19-10.18-2.52-4.26,1.84-8.34,4.09-12.48,6.2-16.97,8.64-33.94,17.3-51.45,26.23,1.52.86,2.53,1.54,3.63,2.02,17.02,7.49,34.04,14.98,51.09,22.41,10.67,4.65,18.31.68,20.6-10.6.16-.77.11-1.68.52-2.29.52-.77,1.41-1.29,2.14-1.92.51.67,1.34,1.3,1.45,2.03.29,1.86.34,3.76.35,5.65.03,9.9.01,19.8.01,30.85Z"/>
    <path fill="#FFFBEB" d="M161.52,394.73c-1.07-1.31-1.88-2.41-2.8-3.42-12.33-13.3-24.65-26.61-37.02-39.88-7.66-8.22-16.42-7.73-23.03,1.24-.47.64-.76,1.48-1.36,1.93-.87.64-1.94,1.01-2.93,1.5-.15-1.07-.72-2.3-.38-3.18,3.05-7.78,6.25-15.5,9.42-23.23,1.31-3.18,2.68-6.33,4.48-10.59,1.35,1.76,2.79,2.78,2.83,3.85.35,8.62,5.15,15.08,10.55,21.21,19.03,21.59,38.15,43.1,57.17,64.69,1.06,1.2,2.51,3.21,2.12,4.21-.59,1.46-2.6,3.24-4.14,3.36-30.34,2.38-60.69,4.57-91.05,6.74-7.37.53-14.44,1.57-19.38,7.86-.45.58-1.92.62-2.85.47-.29-.05-.72-1.67-.45-2.34,4.9-12.13,9.87-24.24,14.93-36.31.31-.75,1.7-1.72,2.27-1.55.78.23,1.67,1.4,1.78,2.26.67,5.07,4.21,6.59,8.6,6.32,22.99-1.39,45.96-2.96,68.94-4.49.61-.04,1.2-.34,2.28-.66Z"/>
    <path fill="#FFFBEB" d="M1109.57,404c-1.08-3.76-2.06-7.17-3.37-11.74,2.05.48,3.92.36,4.44,1.12,8.32,12.14,20.82,17.85,34.51,21.83.6.17,1.15.5,2.28,1.01-9.38,2.82-18.23,5.47-27.57,8.28,1.95,6.44,3.84,12.68,5.73,18.92-.37.36-.74.72-1.11,1.08-.99-.86-2.5-1.54-2.88-2.61-1.85-5.17-3.4-10.45-5.16-16-1.4.25-2.65.36-3.81.71-23.26,6.85-46.5,13.72-69.75,20.6-1.23.36-2.44.8-3.63,1.27-9.12,3.58-10.74,10.75-4.14,17.76,1.01,1.08,1.49,2.64,2.22,3.98-1.71-.27-3.64-.13-5.1-.88-8.24-4.21-13.06-11.02-14.85-19.86-2.06-10.2,2.15-18.13,12.56-21.52,17.54-5.71,35.32-10.74,53-16.04,8.74-2.62,17.49-5.2,26.64-7.92Z"/>
    <path fill="#FFFBEB" d="M1034.76,515.1c-3.05-15.33-5.77-29.03-8.72-43.87,1.89.61,3.89.71,4.14,1.41,2.64,7.4,8.5,7.3,14.68,6.16,13.74-2.52,27.46-5.21,41.18-7.84,5.21-1,10.43-1.93,15.61-3.03,8.53-1.82,10.19-3.74,10.71-13.25,1.89.82,4.11,1.06,4.77,2.17,5.28,8.98,10.26,18.12,15.74,27.95-6.35,1.26-12.22,2.47-18.11,3.58-21.93,4.16-43.88,8.27-65.81,12.44-6.08,1.16-11.22,3.27-10.94,10.79.03.82-1.54,1.7-3.25,3.47Z"/>
    <path fill="#FFFBEB" d="M586.1,40.69c.2,2.87.41,5.01.49,7.15.94,25.32,1.9,50.64,2.78,75.96.22,6.29,1.38,11.7,9.24,12.66.64.08,1.1,1.48,1.65,2.26-.99.53-1.95,1.49-2.96,1.54-10.13.47-20.27.79-30.41,1.14-2.74.09-5.48.24-8.21.1-.82-.04-1.59-.99-2.38-1.53.6-.74,1.04-1.84,1.82-2.15,7.11-2.9,8.49-4.53,8.27-11.89-.58-19.35-1.27-38.69-2.07-58.03-.3-7.35-2.22-9.51-8.94-11.54-.88-.27-2.19-1.21-2.17-1.8.04-.98.78-2.5,1.6-2.8,10.18-3.72,20.42-7.25,31.3-11.06Z"/>
    <path fill="#FFFBEB" d="M569.92,0c8.15,0,15.2,6.79,15.24,14.67.04,8.11-7.07,15.29-15.17,15.33-8.23.04-15.21-6.96-15.17-15.21C554.88,6.77,561.79,0,569.92,0Z"/>
    <path fill="#FFFBEB" d="M32.89,470.74c-8.42.06-15.06-6.25-15.21-14.46-.15-8.28,6.67-15.1,15.13-15.13,8.23-.03,15.19,6.87,15.26,15.14.07,8.03-6.62,14.39-15.18,14.45Z"/>
    <path fill="#FFFBEB" d="M1156.27,450.5c8.33-.06,15.21,6.42,15.35,14.44.13,8.06-6.62,15-14.71,15.1-8.48.11-15.83-6.58-15.93-14.48-.11-8.13,6.86-14.99,15.29-15.05Z"/>
  </g>
</svg>