<svg width="167" height="121" viewBox="0 0 167 121" fill="none" xmlns="http://www.w3.org/2000/svg">
<g id="thapact logo 1" clip-path="url(#clip0_1_58)">
<g id="pact">
<path id="Vector" d="M49.2067 105.467C49.2067 108.164 49.2067 110.61 49.2067 113.056C49.2067 114.31 49.1895 115.564 49.22 116.817C49.2637 118.604 49.6825 119.11 51.4493 119.776C51.6998 119.87 51.8549 120.192 52.0537 120.409C51.8191 120.543 51.5845 120.792 51.3486 120.793C47.6003 120.817 43.8508 120.81 40.1026 120.81C40.023 120.699 39.9422 120.586 39.8627 120.474C40.1198 120.234 40.3332 119.879 40.6433 119.772C42.3332 119.184 42.87 118.629 42.874 116.946C42.8965 107.042 42.8965 97.1383 42.8766 87.2339C42.8726 85.5449 42.3451 84.9794 40.6606 84.4026C40.3942 84.3111 40.0363 84.0277 40.0244 83.8158C40.0111 83.5939 40.312 83.2152 40.5585 83.1387C43.3591 82.2622 46.1755 81.4297 49.1484 80.5369V84.4716C49.3591 84.4427 49.4824 84.4578 49.5049 84.4189C51.4798 80.9895 54.7575 80.1783 58.5203 80.4968C62.1956 80.8077 64.8331 82.6585 66.1837 85.8684C68.3428 91.0018 68.4104 96.2481 66.2526 101.388C64.1559 106.382 59.1565 108.072 53.5911 107.449C51.3777 107.202 50.9841 106.959 49.2094 105.467H49.2067ZM49.2067 94.7384C49.2067 97.2035 49.2624 99.6699 49.1895 102.133C49.1298 104.12 50.2061 105.388 51.9304 106.191C53.6958 107.014 55.4811 106.699 56.8224 105.413C57.8191 104.457 58.7045 103.27 59.2333 102.031C60.9855 97.9283 61.5766 93.6174 60.7801 89.2539C60.4514 87.4521 59.7092 85.6327 58.7482 84.0415C57.6561 82.2321 55.3088 81.6779 53.2651 82.3024C51.1816 82.9393 49.2133 85.2528 49.208 87.0935C49.2001 89.6414 49.2067 92.1905 49.2054 94.7384H49.2067Z" fill="white"/>
<path id="Vector_2" d="M93.5784 79.8223H81.8115C81.7267 79.7307 81.6419 79.638 81.5584 79.5464C81.838 79.3057 82.0793 78.9245 82.4027 78.8468C83.8102 78.507 84.526 77.6618 84.5286 76.3327C84.5405 70.5674 84.6134 64.7995 84.469 59.0366C84.3894 55.8517 82.1986 54.0524 78.9063 54.0248C75.9215 53.9998 73.2813 56.3709 73.101 59.4742C72.942 62.224 73.0228 64.9876 73.0122 67.7449C73.0016 70.3354 73.0189 72.9259 73.0083 75.5177C73.0016 77.144 73.3038 78.537 75.3688 78.8844C75.5915 78.922 75.7372 79.3596 76.05 79.7934H63.5542C63.8935 79.3684 64.0433 78.9721 64.3136 78.8743C66.2898 78.1634 66.7007 77.6819 66.71 75.6619C66.7285 71.4413 66.7166 67.2207 66.7166 63.0001C66.7166 57.6937 66.7126 52.386 66.7192 47.0796C66.7219 45.3454 66.5231 43.763 64.2235 43.4282C64.0592 43.4044 63.7941 43.0521 63.8325 42.9192C63.9094 42.6558 64.1162 42.2985 64.3547 42.2245C67.154 41.3606 69.9691 40.5405 73.0016 39.6453V56.0536C74.8943 54.3621 76.7379 53.2738 78.9725 52.9227C81.5478 52.5177 84.0939 52.6255 86.5194 53.5822C89.5147 54.7646 90.8309 57.048 90.8521 60.0272C90.8865 65.0001 90.864 69.973 90.868 74.9447C90.868 75.4036 90.8534 75.8663 90.8958 76.3227C91.0138 77.6067 91.5996 78.5283 93.0377 78.848C93.3584 78.9195 93.6115 79.2668 93.8965 79.4862C93.7905 79.5991 93.6844 79.7119 93.5784 79.8248V79.8223Z" fill="white"/>
<path id="Vector_3" d="M83.1898 105.636C80.6716 108.077 77.5741 108.449 74.2447 107.843C70.3839 107.14 68.0154 105.024 67.3659 101.778C66.6728 98.3084 68.2341 94.6659 71.3302 92.844C74.4952 90.9807 77.9373 90.6559 81.5251 91.5061C81.9082 91.5964 82.2846 91.713 82.665 91.812C82.7047 91.8221 82.7525 91.8032 82.7114 91.8083C82.7114 89.313 82.9168 86.8103 82.6491 84.3527C82.4171 82.2198 81.1368 81.2932 79.3117 81.2581C77.4535 81.223 76.0738 82.2135 75.4919 84.1295C75.2388 84.9633 75.0837 85.8498 75.0625 86.7162C75.0347 87.8673 74.4595 88.4942 73.3488 88.7864C73.1791 88.8315 73.0161 88.913 72.8451 88.9356C71.4972 89.1174 69.9067 89.2365 69.2294 88.0679C68.7589 87.2567 68.9339 85.8511 69.3288 84.8994C70.4316 82.2374 73.0028 81.1979 75.7106 80.8154C77.9426 80.5007 80.2992 80.4756 82.5324 80.7778C86.8413 81.3609 89.1859 84.1194 89.239 88.3551C89.3026 93.3255 89.2575 98.2959 89.2628 103.266C89.2655 105.321 89.4895 105.508 91.6498 105.375C91.8328 105.364 92.1747 105.483 92.1827 105.565C92.2025 105.773 92.1416 106.049 91.9984 106.202C90.3165 108.002 85.1011 108.872 83.4947 105.982C83.439 105.882 83.3396 105.803 83.1912 105.636H83.1898ZM82.9552 98.5692C82.9552 96.8978 83.003 95.2251 82.9168 93.5574C82.8983 93.2076 82.4344 92.6509 82.0898 92.5832C80.1083 92.1982 78.2077 92.444 76.5894 93.6979C73.6364 95.9875 72.8557 102.479 75.1593 105.39C76.2408 106.757 78.0791 107.271 79.9068 106.714C81.8684 106.119 82.9221 104.88 82.9499 103.079C82.9738 101.576 82.9552 100.071 82.9552 98.568V98.5692Z" fill="white"/>
<path id="Vector_4" d="M107.044 64.2853C106.869 61.4641 106.885 58.8811 106.496 56.3532C106.197 54.4197 104.997 53.6122 103.309 53.5458C101.48 53.4756 100.095 54.3984 99.4751 56.2203C99.2206 56.9651 99.092 57.7639 99.0231 58.5475C98.8521 60.4936 98.1417 61.1832 96.0569 61.2986C93.2086 61.4565 92.0926 60.1212 93.0071 57.5946C93.8103 55.3777 95.6606 54.2166 97.874 53.5132C100.961 52.5326 104.117 52.4198 107.27 53.1746C110.913 54.0461 113.056 56.6203 113.112 60.3092C113.188 65.3223 113.141 70.3366 113.152 75.3509C113.152 75.7671 113.135 76.1935 113.215 76.5985C113.413 77.5828 114.019 78.0329 115.116 77.8235C115.467 77.7571 115.846 77.8135 116.345 77.8135C114.208 80.8354 109.339 80.8542 107.111 77.8875C105.07 79.9802 102.453 80.5256 99.5771 80.3363C95.0999 80.0416 91.9786 77.6806 91.2947 74.0431C90.5181 69.9102 92.6148 66.0483 96.6467 64.4007C99.8992 63.0728 103.241 62.9888 107.04 64.2853H107.044ZM106.896 70.6864C106.896 69.099 106.944 67.5078 106.86 65.9241C106.84 65.5555 106.425 64.9536 106.098 64.8897C103.871 64.4571 101.765 64.7355 100.097 66.3555C97.5586 68.8194 96.9277 74.3553 98.8058 77.2881C99.8449 78.9106 101.605 79.5614 103.608 79.0636C105.637 78.5596 106.839 77.2204 106.887 75.3245C106.925 73.7797 106.895 72.2324 106.896 70.6864Z" fill="white"/>
<path id="Vector_5" d="M96.4214 92.4275C96.261 98.312 100.024 105.307 107.146 104.446C108.057 104.327 108.961 104.06 109.825 103.65C110.485 103.408 112.237 102.126 112.639 102.534C112.842 103.217 111.609 104.575 110.875 105.261C108.027 107.959 103.612 108.588 99.7123 107.849C94.7129 107.025 91.6142 103.329 90.42 98.8988C88.974 93.867 89.9031 87.511 93.7984 83.6729C97.8873 79.7357 107.609 78.9708 111.552 83.4372C112.575 84.5268 113.351 86.2647 112.827 87.57C112.21 89.2564 109.739 89.6878 108.355 88.5668C106.964 87.5198 106.574 85.5763 105.764 84.1143C104.94 82.4516 103.109 81.0247 101.128 81.7131C97.874 82.9243 97.259 86.6659 96.7315 89.5611C96.5698 90.4965 96.4466 91.4407 96.4214 92.3874V92.425V92.4275Z" fill="white"/>
<path id="Vector_6" d="M114.541 81.9415C114.461 81.8725 114.335 81.8499 114.221 81.8462C113.349 81.7922 112.477 82.0042 111.724 81.6531C111.291 81.396 111.625 80.8669 112.02 80.7402C115.773 79.6017 118.288 77.0149 120.453 74.1059C120.546 73.968 120.762 73.7172 120.892 73.7761C121.021 73.8526 121.017 74.0282 121.023 74.1649C121.029 76.2388 121.014 78.3303 121.029 80.4769C121.029 80.7829 121.288 80.8857 121.576 80.8719C123.152 80.8719 124.646 80.8719 126.127 80.8719C126.365 80.8619 126.749 80.9333 126.72 81.2104C126.634 81.5866 126.065 81.8261 125.664 81.8236C124.366 81.8662 123.049 81.8449 121.641 81.8436C121.104 81.8211 121.075 82.2085 121.062 82.6411C121.006 89.1989 121.041 95.763 121.047 102.321C121.067 104.274 122.15 106.054 124.514 105.508C124.842 105.526 127.495 104.246 126.903 105.152C124.801 108.327 119.368 109.329 116.553 107.182C115.363 106.276 114.866 105.054 114.721 103.678C114.577 96.9944 114.713 90.3061 114.665 83.6267C114.664 83.1602 114.669 82.7502 114.663 82.2612C114.656 82.1371 114.628 82.0305 114.562 81.9603L114.541 81.9402V81.9415Z" fill="white"/>
<path id="Vector_7" d="M53.2095 53.8092C52.5958 53.4644 49.7011 54.2105 50.23 52.9754C50.3598 52.7209 50.6369 52.6155 50.9072 52.5353C54.7549 51.3942 57.1008 48.4551 59.5581 45.427C59.7092 47.7994 59.5581 50.094 59.6138 52.3698C59.6204 52.4776 59.6443 52.5704 59.7012 52.6331C59.7861 52.7359 59.973 52.7509 60.1188 52.7522C61.7874 52.756 63.3752 52.7459 64.9405 52.7572C65.1526 52.7597 65.4084 52.8939 65.3739 53.1058C65.2109 53.5497 64.5734 53.6964 64.1254 53.7064C62.8358 53.7428 61.5329 53.7227 60.1718 53.7227C59.4693 53.7039 59.7172 54.5891 59.6496 55.0004C59.639 61.1733 59.6469 67.3512 59.6456 73.5241C59.5912 74.6814 59.7702 76.2488 60.7377 77.0049C61.4879 77.6255 62.5853 77.7284 63.8564 77.2519C64.1029 77.1641 65.5701 76.6011 65.3183 77.218C65.1672 77.608 64.9207 77.9791 64.588 78.26C61.7251 81.0411 55.1432 81.2919 53.6959 77.0613C53.232 75.5416 53.391 73.8752 53.3301 72.3078C53.2346 66.1537 53.5024 59.9407 53.2333 53.8305L53.2121 53.8105L53.2095 53.8092Z" fill="white"/>
</g>
<g id="Leaf_Right">
<path id="Vector_8" d="M148.478 90.6911C148.169 90.3688 148.413 89.6253 148.531 89.1764C149.059 87.377 149.59 85.5865 149.875 83.7207C150.222 81.1214 149.869 78.1472 153.704 78.5045C158.25 79.8349 161.158 79.4362 164.05 75.5893C165.445 73.8589 166.414 71.8865 166.822 69.7361C167.201 67.7136 167.032 65.8491 164.891 68.1612C162.368 70.6602 158.164 69.2383 155.326 71.2119C154.129 72.0069 153.445 73.2445 152.894 74.5009C152.219 76.3328 150.134 77.7597 150.214 74.7655C150.169 72.185 149.768 69.5944 149.49 67.0352C149.082 65.1231 150.1 63.0404 152.289 62.7482C155.118 62.5664 157.339 62.4322 159.272 60.169C161.497 57.0944 162.289 52.9942 161.303 49.378C160.181 45.7179 159.196 50.5792 157.742 51.2626C154.057 53.7604 150.234 53.6914 150.064 59.0906C150.102 59.8705 149.193 62.9062 148.341 61.2561C147.543 58.5527 147.087 55.7239 145.89 53.1259C144.952 51.4983 144.972 49.5837 147.096 48.8953C148.162 48.5128 149.387 48.4338 150.373 47.8683C151.938 46.9166 153.281 45.422 153.959 43.8133C154.961 40.8441 155.24 37.594 153.885 34.675C153.678 34.1458 153.095 32.7289 152.603 33.8135C151.159 39.703 143.731 38.2736 144.46 45.2314C144.491 45.9236 144.611 47.7066 143.766 47.7567C143.347 47.684 143.038 47.1486 142.79 46.7712C141.972 45.432 141.067 44.1004 140.219 42.7588C139.563 41.7469 138.992 40.5268 139.458 39.3419C140.438 37.0109 143.792 36.7965 145.014 34.5809C147.047 31.9227 145.291 22.758 142.345 21.1756C141.371 21.0314 141.808 23.4477 141.471 24.0508C140.985 25.9642 139.391 27.1704 138.129 28.714C135.551 31.8073 137.021 33.7559 137.795 36.9896C137.866 39.8623 134.89 34.8304 134.224 34.3866C131.227 31.475 132.175 29.5566 135.432 27.4488C140.329 23.8564 137.391 17.2209 133.913 13.6661C133.351 13.0642 131.555 11.216 131.229 12.5614C132.106 17.5393 129.432 18.2478 128.241 22.4433C127.638 24.6815 129.316 26.5071 130.15 28.4331C130.745 30.9346 126.889 27.2444 126.626 26.6175C125.675 25.0827 126.162 23.1329 125.547 21.4878C124.186 17.266 119.093 15.9093 115.172 14.5827C111.992 13.3702 110.661 13.4492 111.946 17.1105C113.495 21.3562 115.661 27.0187 121.205 27.361C123.983 27.3849 125.31 27.8827 127.323 29.7547C128.029 30.2675 130.534 32.3402 128.045 31.9929C126.622 31.6305 125.331 30.6437 123.825 30.4669C120.489 29.776 118.192 32.6299 115.302 33.5715C114.413 33.8574 113.47 33.8812 112.539 33.8148C111.655 33.7295 110.472 33.8587 111.331 34.8969C113.996 38.0592 120.345 40.483 124.455 38.878C126.445 38.2372 127.432 36.473 128.616 34.996C129.853 33.5653 131.677 33.8725 132.666 35.3345C133.73 36.6222 134.774 37.9326 135.694 39.3056C137.324 42.0766 134.036 40.9682 132.652 40.1883C131.233 39.5576 129.583 39.4134 128.092 39.8961C125.291 40.893 122.993 43.5625 119.703 43.0396C116.188 42.6986 119.636 45.3744 120.737 46.1242C123.05 47.6589 125.883 48.4602 128.689 48.6382C130.842 48.6671 132.994 47.7655 134.29 46.1355C135.292 44.5932 137.22 41.95 138.948 44.3148C139.926 45.832 140.757 47.4483 141.646 49.0119C141.91 49.5272 142.261 50.1266 142.212 50.6934C141.779 52.1943 139.648 50.8338 138.825 50.1742C134.573 46.8652 131.966 49.8194 127.69 50.4263C126.406 50.8601 122.496 48.7498 123.579 50.9955C125.656 54.6155 130.33 57.4907 134.716 57.517C137.815 57.3352 138.756 55.5822 140.96 54.119C142.526 53.2124 144.211 54.1114 144.679 55.6525C145.669 58.3195 146.333 61.2598 146.39 64.0924C145.75 66.2578 142.617 61.6222 141.327 61.4028C138.245 59.7727 134.872 62.2003 131.642 61.384C130.758 61.2185 129.873 60.6291 129.034 60.4348C126.962 60.3144 130.294 64.9174 130.909 65.4629C133.723 68.402 138.517 71.2433 142.548 68.6904C144.643 67.1606 147.193 66.0936 147.721 69.4841C148.117 71.4966 148.129 73.5655 148.171 75.6194C148.142 76.6689 148.295 77.8412 147.864 78.818C146.872 80.4594 145.071 78.6375 144.393 77.5679C143.552 76.4181 142.42 75.4137 140.997 74.9723C138.842 74.2589 136.473 75.1379 134.248 74.8959C132.383 74.9861 129.854 72.4947 129.555 73.6307C129.384 74.7542 130.131 75.9416 130.658 76.9272C132.341 79.7672 134.9 82.4305 138.336 83.2768C139.383 83.5339 140.499 83.5389 141.53 83.2179C143.336 82.6173 147.291 80.0907 147.432 83.5552C146.923 89.8397 143.994 95.6577 141.97 101.584C140.113 107.491 138.397 113.745 138.966 119.93C139.641 121.967 141.315 120.719 141.486 119.107C142.261 114.978 142.879 110.818 143.66 106.691C144.141 103.937 144.903 101.243 145.721 98.5642C146.322 96.9968 146.426 95.0583 147.658 93.7969C149.233 92.3525 151.576 93.2753 153.26 94.0966C158.772 96.1981 164.165 89.6215 165.252 85.0887C165.561 83.6104 164.936 83.1991 163.676 84.147C159.135 87.6491 153.885 83.0474 150.611 88.9883C150.202 89.6629 149.274 91.0321 148.485 90.6998L148.472 90.6886L148.478 90.6911Z" fill="white"/>
</g>
<g id="Leaf_Left">
<path id="Vector_9" d="M18.3607 90.5781C18.6656 90.2571 18.4244 89.5148 18.3077 89.0672C17.7869 87.2716 17.2646 85.4861 16.9837 83.6241C16.6417 81.031 16.989 78.0631 13.2116 78.4204C8.73306 79.7471 5.86888 79.3496 3.02061 75.5114C1.64617 73.7848 0.691883 71.8175 0.288962 69.6708C-0.0847996 67.6521 0.0822012 65.7925 2.19091 68.0997C4.67735 70.5937 8.81789 69.1743 11.6145 71.1429C12.7941 71.9366 13.4674 73.1717 14.0095 74.4243C14.6735 76.2512 16.7279 77.6756 16.6483 74.6876C16.6934 72.1121 17.087 69.5279 17.3614 66.975C17.763 65.0678 16.7597 62.9889 14.6032 62.698C11.8173 62.5161 9.62903 62.3832 7.72576 60.1237C5.53356 57.0555 4.7529 52.9653 5.72442 49.3579C6.8298 45.7066 7.79999 50.5566 9.23141 51.2387C12.8617 53.7302 16.6285 53.6625 16.7941 59.0492C16.757 59.8278 17.6517 62.856 18.4906 61.2096C19.2766 58.5125 19.7259 55.69 20.9042 53.0982C21.828 51.4744 21.8094 49.5648 19.7153 48.8776C18.6656 48.4964 17.4595 48.4175 16.488 47.8532C14.9465 46.904 13.6238 45.4119 12.9558 43.8069C11.9684 40.844 11.694 37.6014 13.0287 34.6899C13.2328 34.162 13.8067 32.7489 14.2918 33.8297C15.7153 39.7055 23.0314 38.2798 22.3131 45.2226C22.2826 45.9134 22.1633 47.6927 22.997 47.7429C23.4092 47.6701 23.714 47.136 23.9579 46.7598C24.7624 45.4232 25.6557 44.0953 26.4907 42.7562C27.1362 41.7455 27.7008 40.5293 27.2409 39.3468C26.276 37.0221 22.9718 36.8077 21.7683 34.5971C19.7657 31.9452 21.4953 22.8018 24.3979 21.2219C25.3575 21.0777 24.9268 23.4877 25.2581 24.0908C25.7379 26.0005 27.3072 27.203 28.5504 28.7427C31.0899 31.8285 29.6412 33.7733 28.8791 36.9996C28.8089 39.8647 31.742 34.8441 32.3954 34.4015C35.347 31.4975 34.414 29.5828 31.2052 27.4788C26.382 23.8952 29.2754 17.2747 32.7002 13.7274C33.2542 13.1268 35.0223 11.2824 35.3444 12.6253C34.4802 17.5919 37.1151 18.2979 38.2881 22.4846C38.8832 24.7178 37.2291 26.5396 36.4074 28.4606C35.8215 30.9558 39.6188 27.2744 39.8786 26.6487C40.8143 25.1165 40.3358 23.1717 40.9415 21.5304C42.2828 17.3186 47.2981 15.9644 51.163 14.6403C54.2949 13.4303 55.6057 13.5093 54.3413 17.1618C52.8158 21.3975 50.6819 27.0475 45.2212 27.3885C42.4843 27.4124 41.1775 27.9089 39.1947 29.7772C38.4988 30.2888 36.0323 32.3564 38.4829 32.0104C39.8852 31.648 41.1562 30.6649 42.6394 30.4881C45.9263 29.7998 48.1888 32.6461 51.0358 33.5852C51.9105 33.8699 52.8396 33.8949 53.7555 33.8285C54.6263 33.7432 55.7913 33.8724 54.947 34.9081C52.3214 38.0629 46.0682 40.4816 42.0191 38.8791C40.0588 38.2397 39.086 36.4792 37.9183 35.0059C36.7003 33.5777 34.9044 33.8849 33.9289 35.3444C32.8805 36.6297 31.852 37.9362 30.9454 39.3067C29.3403 42.0715 32.5783 40.9656 33.9421 40.1869C35.3404 39.5588 36.9667 39.4146 38.4352 39.896C41.1934 40.8904 43.4571 43.5536 46.6991 43.0333C50.1623 42.6922 46.7666 45.363 45.6811 46.1103C43.4028 47.6413 40.6115 48.4413 37.8481 48.6193C35.7274 48.6482 33.6068 47.7491 32.3304 46.1216C31.343 44.5831 29.445 41.9461 27.7432 44.306C26.7797 45.8194 25.9606 47.4319 25.0845 48.993C24.8247 49.5071 24.4788 50.1052 24.5265 50.6707C24.9533 52.1678 27.0527 50.8111 27.8638 50.1528C32.0521 46.8513 34.6207 49.7992 38.8315 50.4049C40.0959 50.8387 43.9475 48.7322 42.8819 50.9729C40.8355 54.5841 36.2311 57.4542 31.9116 57.4793C28.8592 57.2975 27.9314 55.5483 25.7604 54.0888C24.2177 53.1847 22.5583 54.0813 22.0957 55.6198C21.1202 58.2805 20.4668 61.2134 20.4098 64.0409C21.0407 66.2013 24.1275 61.5757 25.396 61.3576C28.4311 59.7313 31.7539 62.1538 34.9362 61.3387C35.8069 61.1732 36.6791 60.5852 37.5048 60.3921C39.5446 60.2717 36.2629 64.8647 35.6572 65.4089C32.8858 68.3417 28.1634 71.1767 24.1925 68.6301C22.1289 67.1029 19.6172 66.0383 19.0963 69.4226C18.7067 71.4313 18.6947 73.4939 18.6523 75.5428C18.6815 76.5898 18.5317 77.7596 18.9545 78.7339C19.9313 80.3715 21.706 78.5546 22.3741 77.4863C23.2011 76.3402 24.3171 75.3359 25.7194 74.897C27.8426 74.1848 30.1753 75.0613 32.3675 74.8205C34.2045 74.9108 36.6963 72.4256 36.9905 73.5591C37.1589 74.6801 36.4233 75.865 35.905 76.8481C34.247 79.6806 31.7247 82.3388 28.3423 83.184C27.3112 83.441 26.2111 83.446 25.1958 83.125C23.4158 82.5257 19.5205 80.0041 19.3813 83.4623C19.8836 89.7318 22.7677 95.5372 24.7624 101.451C26.5915 107.344 28.2827 113.586 27.7207 119.755C27.0554 121.787 25.4079 120.541 25.2382 118.934C24.4735 114.813 23.8664 110.664 23.0977 106.545C22.6232 103.798 21.8731 101.11 21.0672 98.4362C20.4748 96.8726 20.3727 94.9391 19.1586 93.679C17.6079 92.237 15.2991 93.1586 13.641 93.9774C8.21219 96.0739 2.89867 89.5123 1.82775 84.9896C1.52291 83.515 2.13922 83.1037 3.37979 84.0491C7.853 87.5437 13.0234 82.952 16.2494 88.8791C16.6523 89.5512 17.5668 90.9179 18.3435 90.5869L18.3554 90.5756L18.3607 90.5781Z" fill="white"/>
</g>
<g id="Rose">
<g id="Group">
<path id="Vector_10" d="M102.482 28.052C101.717 28.052 100.906 27.899 100.196 27.6219C100.096 27.5793 100.013 27.5291 99.9348 27.4639C99.5001 27.0163 98.1362 26.032 96.7247 25.8828C96.4742 25.8452 96.2065 25.8264 95.9308 25.8264C95.7439 25.8264 95.561 25.8351 95.3847 25.8527C95.3569 25.8552 95.329 25.8565 95.3012 25.8565C95.2257 25.8565 95.1726 25.8439 95.1382 25.8188C95.0308 25.7511 95.0242 25.4665 95.1183 25.054C95.5119 23.3086 97.5014 22.9387 99.4245 22.5801C101.246 22.2415 103.128 21.8917 103.615 20.3582C103.745 19.9344 103.672 19.587 103.589 19.187C103.56 19.0504 103.531 18.9087 103.507 18.7545L103.455 18.4886C103.381 18.1087 103.303 17.7175 103.232 17.3175C103.1 16.5727 102.791 14.8298 103.234 14.3358C103.313 14.2467 103.411 14.2041 103.535 14.2041C103.813 14.2041 104.209 14.4235 104.712 14.8549C105.04 15.1282 105.283 15.379 105.565 15.6699L105.664 15.7727C105.906 16.0273 106.148 16.273 106.384 16.51C107.411 17.5445 108.382 18.5225 108.751 19.9306C109.085 21.1243 109.018 22.071 108.55 22.7456C108.229 23.1644 107.776 23.4778 107.336 23.7813C106.704 24.2189 106.049 24.6715 105.76 25.454L105.743 25.4928C105.646 25.7085 105.582 25.9242 105.521 26.1323C105.394 26.5624 105.273 26.9699 104.877 27.3198C104.146 27.9254 103.171 28.0533 102.482 28.0533V28.052Z" fill="white"/>
<path id="Vector_11" d="M103.536 14.268C103.716 14.268 104.058 14.3783 104.669 14.9037C104.994 15.1745 105.236 15.424 105.517 15.7124L105.615 15.814C105.857 16.0698 106.101 16.3156 106.336 16.5525C107.402 17.6259 108.322 18.5525 108.688 19.9468C109.016 21.1217 108.952 22.0521 108.498 22.7066C108.181 23.1191 107.732 23.4301 107.297 23.731C106.657 24.1737 105.996 24.6313 105.699 25.4301L105.682 25.4689C105.584 25.6896 105.519 25.9065 105.456 26.1159C105.332 26.5385 105.214 26.936 104.834 27.272C104.116 27.8664 103.158 27.9917 102.481 27.9917C101.724 27.9917 100.922 27.84 100.225 27.5679C100.131 27.5278 100.055 27.4827 99.9825 27.4237C99.5319 26.9623 98.1548 25.9742 96.738 25.8238C96.4808 25.7849 96.2091 25.7661 95.9308 25.7661C95.7426 25.7661 95.5557 25.7749 95.3808 25.7924C95.3543 25.7949 95.3278 25.7962 95.3026 25.7962C95.2429 25.7962 95.2018 25.7874 95.1806 25.7724L95.1767 25.7686L95.1714 25.7661C95.1356 25.7435 95.0693 25.5755 95.1833 25.0702C95.569 23.3649 97.4484 23.0151 99.4378 22.6452C101.277 22.3029 103.179 21.9493 103.68 20.3794C103.814 19.9418 103.741 19.5882 103.655 19.1782C103.627 19.0428 103.597 18.9023 103.573 18.7443L103.52 18.4735C103.446 18.0973 103.369 17.7074 103.299 17.3111C103.169 16.5751 102.863 14.8523 103.285 14.3796C103.352 14.3056 103.431 14.2705 103.536 14.2705M103.536 14.1426C102.636 14.1426 102.965 16.1839 103.167 17.33C103.255 17.8252 103.354 18.3193 103.442 18.7644C103.537 19.3788 103.721 19.7938 103.553 20.3418C102.567 23.4351 95.8354 21.5819 95.0534 25.0414C94.9871 25.3373 94.9275 25.7611 95.0971 25.8677C95.1488 25.9065 95.2191 25.9191 95.3012 25.9191C95.3304 25.9191 95.3596 25.9178 95.3914 25.9153C95.561 25.8978 95.7439 25.889 95.9295 25.889C96.1893 25.889 96.4583 25.9065 96.7168 25.9454C98.1084 26.0921 99.4656 27.0739 99.8911 27.5115C99.9719 27.578 100.059 27.6319 100.171 27.6795C100.84 27.9416 101.666 28.1146 102.482 28.1146C103.384 28.1146 104.273 27.9027 104.922 27.3648C105.527 26.8319 105.508 26.1774 105.804 25.5166L105.822 25.4739C106.305 24.1687 107.812 23.8138 108.604 22.7793C109.193 21.9305 109.062 20.7957 108.815 19.9142C108.356 18.1701 107.024 17.1155 105.712 15.73C105.388 15.3977 105.122 15.1156 104.754 14.8096C104.204 14.3369 103.81 14.1426 103.533 14.1426H103.536Z" fill="white"/>
</g>
<g id="Group_2">
<path id="Vector_12" d="M80.6225 11.6524C80.9075 15.053 86.6955 17.068 89.1064 18.9363C89.1356 18.9588 89.1621 18.9814 89.1899 19.0065C90.5299 20.234 91.8248 21.5794 93.6021 22.2026C93.854 22.2904 94.0687 22.4609 94.1972 22.6829C96.416 26.5298 89.0998 28.279 86.2276 29.4325L81.2799 28.0244C76.918 26.2878 79.5662 22.7355 78.6702 19.735C78.649 19.6623 78.6172 19.5933 78.5814 19.5256C76.7974 16.2667 74.5615 11.0405 78.6702 8.4663C78.7206 8.43496 78.7789 8.41489 78.8279 8.38229C79.6987 7.803 79.7345 8.93526 80.3866 10.1302" fill="white"/>
<path id="Vector_13" d="M87.1819 32.5295C88.6491 34.2711 89.4218 36.3689 90.0103 38.5092C90.2197 39.1989 90.4517 39.8822 90.6704 40.5694C90.7857 40.9543 90.9434 41.3618 90.8493 41.7543C89.5358 44.9103 87.0693 46.1065 84.2037 47.7629C83.4708 48.1692 82.543 48.5654 81.708 48.5917C81.1235 48.5466 80.6132 48.0313 80.1189 47.5849C79.2892 46.8539 78.4966 46.168 77.7318 45.358C76.8094 44.3022 74.8835 42.2859 74.144 41.3669C74.0565 41.2565 73.9902 41.1575 73.9491 41.0095C73.757 39.6967 74.4541 38.5469 75.8259 38.2422C76.8929 38.0691 77.7941 37.4923 78.6159 36.8629C80.2938 35.6165 81.4721 33.6981 82.107 31.7809C82.2991 31.2066 82.2753 30.5408 82.7511 30.1019C83.3091 29.5678 83.8724 29.4725 84.4741 30.0844" fill="white"/>
<g id="Group_3">
<path id="Vector_14" d="M67.525 27.6306C67.4468 27.6306 67.358 27.6168 67.2519 27.5879C66.8543 27.4801 66.466 27.3785 66.0843 27.2795C65.2665 27.0651 64.4938 26.8632 63.7622 26.64C63.6508 26.5836 63.5289 26.5234 63.4083 26.4645C62.5786 26.0557 61.7953 25.6708 61.1259 25.0639C59.9914 24.0344 59.6123 22.1348 60.112 19.9819C60.8662 16.7331 62.9762 14.7018 64.7337 14.1287L64.7496 14.1237C64.8967 14.0573 65.1101 14.0247 65.3778 14.0247C66.2473 14.0247 67.9 14.4184 68.9007 15.5005C69.0121 15.7362 69.0823 15.9882 69.1565 16.2528C69.2175 16.4722 69.2811 16.7005 69.3699 16.9161C69.6058 17.4942 69.9504 18.0057 70.3944 18.4346C71.3381 19.37 72.7179 19.8239 73.814 20.1148C74.6834 20.3681 75.5794 20.585 76.4475 20.7944C77.0029 20.9286 77.5781 21.0677 78.1401 21.2144C78.2395 21.2433 78.3071 21.2934 78.3455 21.3649C78.4171 21.4966 78.376 21.6809 78.3283 21.8125C78.2236 22.1586 78.152 22.4169 78.091 22.6752C78.0552 22.8683 78.0128 23.0614 77.9691 23.2645C77.7146 24.4369 77.427 25.7635 78.478 26.6977C78.2355 26.7366 77.9929 26.7779 77.7491 26.8206C76.9962 26.951 76.2169 27.0851 75.4469 27.1152C75.3806 27.1177 75.313 27.119 75.2467 27.119C74.6901 27.119 74.1162 27.0275 73.5608 26.9397C73.2162 26.8845 72.861 26.8281 72.5098 26.7942C72.0631 26.7692 71.59 26.7453 71.1194 26.7453C70.1015 26.7453 68.7934 26.8419 67.7118 27.5917C67.6681 27.6168 67.6045 27.6318 67.5276 27.6318L67.525 27.6306Z" fill="white"/>
<path id="Vector_15" d="M65.3765 14.0873C66.2314 14.0873 67.8563 14.4735 68.8424 15.5343C68.9497 15.7637 69.0174 16.0095 69.0902 16.2691C69.1525 16.491 69.2162 16.7192 69.3063 16.9399C69.5462 17.5267 69.8948 18.0446 70.3441 18.4784C71.2997 19.4251 72.69 19.8828 73.7914 20.1749C74.6635 20.4295 75.5608 20.6464 76.429 20.8558C76.9843 20.9899 77.5582 21.1291 78.1162 21.2746C78.1997 21.2984 78.254 21.3385 78.2845 21.395C78.3322 21.4827 78.3243 21.6244 78.262 21.8C78.1573 22.1448 78.087 22.4018 78.0234 22.6689C77.9876 22.8582 77.9465 23.0501 77.9028 23.2545C77.6523 24.408 77.37 25.7096 78.3389 26.6588C78.1374 26.6914 77.9346 26.7265 77.7371 26.7603C76.9856 26.8907 76.2103 27.0249 75.4429 27.0537C75.3766 27.0562 75.3117 27.0575 75.2454 27.0575C74.694 27.0575 74.1228 26.9672 73.5714 26.8794C73.2268 26.8243 72.869 26.7679 72.5111 26.7327C72.0658 26.7077 71.5926 26.6838 71.1194 26.6838C70.0922 26.6838 68.7735 26.7816 67.6774 27.539C67.6403 27.5591 67.5899 27.5703 67.5276 27.5703C67.4574 27.5703 67.3712 27.5565 67.2718 27.5302C66.8742 27.4224 66.4832 27.3208 66.1055 27.2218C65.2917 27.0086 64.5243 26.808 63.7953 26.586C63.676 26.5271 63.558 26.4682 63.4414 26.4105C62.6157 26.0042 61.8363 25.6205 61.1736 25.0199C60.055 24.0055 59.6839 22.1285 60.1783 19.9969C60.4765 18.7116 61.0703 17.4377 61.8509 16.4095C62.6912 15.3036 63.6959 14.5349 64.7535 14.1901L64.7708 14.1851L64.7801 14.1826L64.788 14.1788C64.9152 14.1212 65.1247 14.0886 65.3791 14.0886M65.3765 13.9619C65.1021 13.9619 64.8768 13.997 64.7284 14.0647L64.7111 14.0697C60.6236 15.4026 58.214 22.5097 61.0796 25.109C61.8523 25.8086 62.7562 26.2086 63.7409 26.7001C64.8172 27.0274 65.9848 27.312 67.232 27.6493C67.3235 27.6744 67.4269 27.6945 67.5236 27.6945C67.6045 27.6945 67.6827 27.6807 67.7476 27.6431C68.7271 26.9635 69.9239 26.808 71.1168 26.808C71.5833 26.808 72.0485 26.8318 72.5005 26.8569C73.4163 26.9484 74.3362 27.1816 75.2441 27.1816C75.3117 27.1816 75.3793 27.1804 75.4468 27.1779C76.4966 27.1365 77.537 26.907 78.5708 26.7465C78.5973 26.734 78.588 26.7114 78.5536 26.6801C77.3117 25.6155 77.9055 24.0193 78.1533 22.689C78.2235 22.3968 78.3018 22.1235 78.3892 21.8326C78.4913 21.5504 78.49 21.252 78.156 21.1542C76.7166 20.7768 75.2586 20.4708 73.8312 20.0545C72.5853 19.7235 71.3103 19.2533 70.4408 18.3919C70.0207 17.9856 69.6721 17.4878 69.4309 16.8948C69.2387 16.4271 69.1698 15.9142 68.9564 15.4666C67.9915 14.4158 66.3652 13.9632 65.3778 13.9632L65.3765 13.9619Z" fill="white"/>
</g>
<g id="Vector_16" filter="url(#filter0_d_1_58)">
<path d="M96.1323 40.804C94.7552 40.3037 93.2946 40.3739 91.8592 40.3739C91.0269 40.3652 91.0799 39.416 90.8983 38.8492C90.2886 36.2236 89.1647 33.8525 87.4033 31.7522C87.2018 31.4864 86.8996 31.1353 86.8864 30.8231L86.8983 30.8055C86.9513 30.7541 87.0613 30.7504 87.1488 30.7504C88.4861 30.7441 89.7837 31.0061 90.9036 31.697C91.9162 32.2901 93.0229 32.586 94.1456 32.8732C95.7731 33.4023 97.5028 33.4362 99.1489 33.223C99.5439 33.1829 99.9375 33.1415 100.333 33.1039C101.779 33.0099 103.089 32.2437 104.295 31.4738C104.734 31.1704 105.142 31.6544 105.556 31.7823C106.452 32.2274 107.28 33.4512 107.052 34.4656C106.851 35.3621 106.321 36.3452 104.827 38.2712C104.181 39.1025 103.699 39.7194 102.896 40.4617C102.05 41.2429 101.239 41.8021 100.615 42.1845" fill="white"/>
</g>
<path id="Vector_17" d="M68.2116 28.0872C68.4952 28.0006 70.2434 27.4715 71.472 27.3938C71.6947 27.38 71.9638 27.3574 72.3216 27.4038C72.9432 27.484 73.2931 27.721 74.592 27.8151C77.1262 27.9994 77.7213 27.237 79.272 27.8151C80.6676 28.3354 81.2336 29.3423 81.2707 29.4238C81.2972 29.4815 81.3158 29.5304 81.329 29.563C81.3502 29.6232 81.3675 29.6783 81.3807 29.726C81.3807 29.726 81.4032 29.805 81.4205 29.8802C81.4284 29.9141 81.6895 32.161 79.6166 34.6801C78.3972 36.1622 76.2196 37.9226 74.5814 37.9201C74.0725 37.9201 73.8896 37.9728 73.1712 38.1107C71.5608 38.4204 70.3322 39.0022 69.5449 39.4449C68.6609 38.5533 67.9955 37.7534 67.5303 37.1578C66.6277 36.0004 66.1135 35.3447 65.7172 34.2989C65.5356 33.8187 65.2122 32.9598 65.2294 31.8187C65.2374 31.331 65.244 30.8771 65.4521 30.3429C65.8722 29.2658 66.796 28.6828 67.2347 28.4458" fill="white"/>
<path id="Vector_18" d="M74.8265 3.71535C77.8458 3.3442 80.9949 -0.203047 83.4535 2.98684C83.5794 3.15611 83.5927 3.29279 83.4177 3.39811C82.0566 4.17928 81.1818 5.33035 80.5787 6.70712C80.5072 6.85257 80.3852 6.9441 80.2262 7.00178C76.3653 8.37353 74.8875 12.5916 76.5588 16.2066C76.6264 16.3558 76.6092 16.4172 76.4647 16.3683C74.5601 15.6147 72.1691 15.3414 70.6476 14.0286C70.523 13.922 70.4434 13.7878 70.4156 13.6323C69.8324 10.5465 69.073 5.50213 72.6621 4.47771" fill="white"/>
<path id="Vector_19" d="M89.3012 5.47191C90.8612 4.41739 90.1746 4.76472 90.889 4.48259C91.7121 4.15658 92.5404 4.21802 93.4298 4.39106C95.6631 4.8224 97.4921 5.94964 99.2469 7.21356C99.8328 7.63612 100.289 8.21917 100.796 8.73703C101.169 9.11695 101.619 9.27745 102.159 9.21601C102.677 9.15708 102.953 9.45801 102.981 9.86302C103.097 11.5533 102.776 13.1958 102.262 14.8083V14.8121C102.2 15.0002 101.936 15.0416 101.816 14.8811C101.238 14.1112 100.452 13.7425 99.4113 13.7363C99.2271 13.735 98.9037 13.3012 98.8878 13.0529C98.8718 12.7971 98.8202 12.5639 98.7393 12.3482C98.4437 11.5595 97.7903 11.0793 97.6883 11.0166C97.459 10.8749 97.2191 10.7834 97.1011 10.742C96.9076 10.6743 96.7287 10.6329 96.5458 10.6016C95.4298 10.4122 94.2038 10.5301 94.2038 10.5301C93.6498 10.584 93.2442 10.6655 92.8665 10.7407C92.0885 10.8962 91.7041 11.0341 91.0838 11.162C90.9871 11.1821 90.6491 11.2511 90.1918 11.3727C90.1918 11.3727 90.1879 11.3727 90.1865 11.3727C90.115 11.3915 89.4562 11.5658 88.7445 11.6912C88.6398 11.71 88.5006 11.7313 88.3469 11.6774C88.1428 11.6059 87.993 11.4304 87.9029 11.1959C87.4363 9.98214 87.2494 8.80599 87.6338 7.70383C87.7624 7.33518 88.054 6.7446 88.6464 6.13898" fill="white"/>
<g id="Group_4">
<path id="Vector_20" d="M96.7049 32.8056C93.9017 32.8056 91.9613 31.9667 89.0985 30.5874C88.616 30.3642 88.0925 30.3429 87.5875 30.3216C87.402 30.3141 87.2098 30.3066 87.0242 30.2878C86.8453 30.2426 86.734 30.1762 86.7287 30.1085C86.7234 30.0307 86.8586 29.8978 87.1727 29.7774C87.7174 29.563 88.286 29.3799 88.8374 29.2031C89.7095 28.9223 90.6121 28.6326 91.4418 28.2113C92.8971 27.4427 94.4425 26.6929 95.9495 26.6929C97.1158 26.6929 98.2093 27.1367 99.2934 28.0521C99.9985 28.5612 100.879 28.8182 101.915 28.8182C102.952 28.8182 104.029 28.5712 105.067 28.121C105.213 28.0784 105.401 27.9142 105.6 27.7399C105.826 27.5418 106.082 27.3173 106.246 27.3173C106.278 27.3173 106.303 27.3261 106.327 27.3436V27.3461C106.392 27.6396 106.265 27.9518 106.143 28.254C106.122 28.3054 106.102 28.3555 106.082 28.4044C105.343 29.8765 104.235 31.0012 102.792 31.741C101.553 32.4733 100.09 32.5824 98.6758 32.6877L98.5075 32.7002C97.8646 32.7705 97.2762 32.8031 96.7063 32.8031L96.7049 32.8056Z" fill="white"/>
<path id="Vector_21" d="M95.9494 26.758C97.0985 26.758 98.1774 27.1969 99.2496 28.1009L99.2536 28.1047L99.2576 28.1072C99.9707 28.6225 100.865 28.8833 101.915 28.8833C102.965 28.8833 104.044 28.6351 105.088 28.1837C105.254 28.131 105.443 27.9642 105.645 27.7887C105.851 27.6081 106.107 27.3837 106.246 27.3837C106.254 27.3837 106.262 27.3837 106.269 27.3874C106.315 27.6558 106.196 27.9504 106.081 28.2363C106.061 28.2852 106.041 28.3341 106.022 28.3818C105.287 29.8451 104.189 30.9585 102.761 31.6908H102.757L102.753 31.6945C101.531 32.4168 100.075 32.5246 98.6691 32.6299L98.4955 32.6425C97.8567 32.7114 97.2721 32.7453 96.7049 32.7453C93.9162 32.7453 91.9825 31.9102 89.1263 30.5322C88.6319 30.304 88.1017 30.2814 87.5901 30.2613C87.4085 30.2538 87.2217 30.2463 87.0414 30.2287C86.8413 30.1773 86.7962 30.1197 86.7949 30.1071C86.7922 30.072 86.8903 29.9567 87.1978 29.8375C87.7399 29.6244 88.3085 29.4426 88.8572 29.2658C89.732 28.9849 90.6372 28.694 91.4735 28.2689C92.9209 27.5053 94.457 26.7592 95.9481 26.7592M95.9494 26.6326C94.4835 26.6326 93.0189 27.3084 91.4099 28.1586C90.062 28.8419 88.5563 29.168 87.1474 29.7209C86.6279 29.9203 86.4397 30.2074 87.0175 30.3504C87.7081 30.4168 88.4238 30.3441 89.0679 30.6425C91.8977 32.0068 93.8553 32.8682 96.7049 32.8682C97.2668 32.8682 97.8659 32.8343 98.5114 32.7641C100.004 32.6525 101.525 32.566 102.823 31.7986C104.317 31.0325 105.425 29.8614 106.144 28.4282C106.28 28.0808 106.476 27.6909 106.391 27.3247L106.378 27.3047C106.339 27.2708 106.294 27.2558 106.245 27.2558C105.904 27.2558 105.354 27.9705 105.038 28.0645C104.111 28.4658 102.997 28.7554 101.914 28.7554C100.986 28.7554 100.081 28.5423 99.3371 28.0056C98.1655 27.0163 97.0574 26.6313 95.9494 26.6313V26.6326Z" fill="white"/>
</g>
<path id="Vector_22" d="M83.6789 14.9425C82.1706 14.2391 81.4761 13.0128 81.0785 11.5382C80.7538 10.3295 80.8638 9.00412 79.989 7.93204C81.4814 7.8054 82.4808 8.50507 83.3608 9.49815C84.0195 10.2417 84.7021 10.984 85.4762 11.616C86.4516 12.4122 87.6392 12.7683 88.946 12.5902C89.2549 12.5476 89.565 12.4184 89.842 12.273C90.4795 11.937 91.1886 12.1363 91.5067 12.7708C91.9467 13.6473 92.0992 14.6052 91.8884 15.513C91.5239 17.0867 92.1416 18.3443 93.0071 19.5731C93.4405 20.1888 93.903 20.7856 94.3298 21.405C94.4239 21.5405 94.4199 21.7373 94.461 21.9053C94.404 21.9618 94.3484 22.0169 94.2914 22.0734C93.5531 21.6709 92.7526 21.3424 92.0912 20.8483C91.0176 20.0458 89.9639 19.197 89.0388 18.249C88.2489 17.4403 87.2323 17.0591 86.274 16.5513" fill="white"/>
<g id="Group_5">
<path id="Vector_23" d="M94.3047 19.0653C94.0144 19.0653 93.8739 19.0064 93.8275 18.9863C93.4564 18.8308 93.2192 18.5124 93.0469 18.2791C92.9077 18.0911 92.8255 17.9293 92.7579 17.7989C92.628 17.5444 92.5233 17.2785 92.4465 17.0077C92.4465 17.0027 92.302 16.456 92.3311 15.9757V15.9569C92.3311 15.9507 92.3325 15.9444 92.3338 15.9394L92.4054 15.4754C92.4478 15.2004 92.4836 14.9965 92.5127 14.8635L92.53 14.7858C92.6214 14.367 92.693 13.9846 92.6506 13.5532C92.6002 13.0379 92.3881 12.6605 92.2622 12.4348C92.241 12.3959 92.2211 12.362 92.2066 12.3345C92.127 12.179 91.9865 12.0536 91.8514 11.9332C91.7692 11.8592 91.683 11.784 91.6168 11.7038C91.5796 11.6724 91.5743 11.6461 91.5743 11.6335C92.5313 11.2097 93.5399 10.979 94.5711 10.9477C94.8123 10.9401 95.0628 10.9326 95.3014 10.9326C96.139 10.9326 96.9992 11.0166 97.6195 11.631C98.4373 12.441 98.53 13.8115 98.2676 14.2165C97.9866 14.6504 97.9681 14.7971 97.9362 15.0642C97.923 15.1758 97.9243 15.2673 97.9243 15.2711C97.9283 15.3601 97.9429 15.4341 97.9575 15.5118C97.9813 15.6359 98.0091 15.7776 98.0052 16.0221C98.0025 16.2014 97.9985 16.4058 97.9256 16.6616C97.8037 17.0942 97.5373 17.4942 97.1357 17.8491L97.1092 17.8729C96.2517 18.6453 95.3782 18.9224 94.7964 19.0177C94.6148 19.0478 94.4478 19.0628 94.3007 19.0628L94.3047 19.0653Z" fill="white"/>
<path id="Vector_24" d="M95.304 10.9953C96.1271 10.9953 96.9713 11.078 97.5744 11.6749C98.3723 12.4648 98.4677 13.7939 98.2146 14.1851C97.9256 14.6315 97.9071 14.7833 97.8739 15.0579C97.8607 15.172 97.862 15.2685 97.862 15.2748C97.866 15.3663 97.8806 15.4428 97.8965 15.5243C97.9203 15.6459 97.9468 15.7839 97.9429 16.0221C97.9402 16.1989 97.9362 16.3983 97.866 16.6465C97.7467 17.0678 97.4869 17.4578 97.0946 17.8051L97.0668 17.8302C96.2198 18.5913 95.361 18.8646 94.7884 18.9587C94.6108 18.9875 94.4478 19.0026 94.3047 19.0026C94.029 19.0026 93.8978 18.9474 93.854 18.9299C93.4988 18.7819 93.2695 18.4709 93.1012 18.244C92.966 18.0609 92.8838 17.9004 92.8176 17.7725C92.689 17.5217 92.5869 17.2597 92.5114 16.9951C92.5101 16.9901 92.3696 16.4497 92.3987 15.982V15.9632C92.3987 15.9632 92.3987 15.9544 92.4001 15.9506C92.4305 15.7513 92.4544 15.5995 92.473 15.4829C92.5154 15.2112 92.5507 15.0094 92.579 14.8773L92.5962 14.8008C92.689 14.377 92.7619 13.9895 92.7181 13.5494C92.6665 13.0215 92.4425 12.6216 92.3219 12.4071C92.3006 12.3695 92.2821 12.3357 92.2675 12.3081C92.1827 12.1413 92.0382 12.0134 91.8991 11.888C91.8142 11.8128 91.7347 11.7413 91.6711 11.6648V11.6623C92.5989 11.2598 93.5757 11.0404 94.5764 11.0103C94.8176 11.0028 95.0668 10.9953 95.304 10.9953ZM95.304 10.8699C95.0641 10.8699 94.8189 10.8774 94.5724 10.8849C93.2085 10.9263 92.1482 11.31 91.5306 11.5846C91.4975 11.6147 91.5014 11.6899 91.5677 11.7426C91.7466 11.9557 92.0276 12.1225 92.1496 12.362C92.2437 12.5463 92.5286 12.9651 92.5869 13.5595C92.6293 13.9845 92.5551 14.3695 92.4676 14.7732C92.3894 15.1306 92.4226 14.9575 92.2702 15.9318C92.2688 15.9431 92.2688 15.9556 92.2675 15.9732C92.237 16.4697 92.3842 17.0252 92.3842 17.0252C92.4411 17.2258 92.5366 17.5079 92.6996 17.8277C92.7712 17.9669 92.8547 18.1286 92.9938 18.3167C93.1648 18.5474 93.414 18.8835 93.8023 19.0452C93.8712 19.074 94.021 19.1292 94.3073 19.1292C94.4438 19.1292 94.6108 19.1167 94.8136 19.0828C96.1708 18.8584 97.0297 18.0358 97.1874 17.8979C97.585 17.5468 97.866 17.1418 97.9972 16.6804C98.0714 16.4171 98.0754 16.2039 98.0781 16.0259C98.0847 15.6183 98.0065 15.4879 97.9972 15.2723C97.9972 15.2723 97.9959 15.182 98.0078 15.0742C98.0396 14.8083 98.0555 14.6742 98.3286 14.2529C98.6254 13.7939 98.4863 12.3971 97.6712 11.5909C97.0535 10.979 96.2145 10.8724 95.3053 10.8724L95.304 10.8699ZM91.5134 11.5796C91.5134 11.5796 91.5173 11.5808 91.5293 11.5846C91.5279 11.5846 91.5134 11.5796 91.5134 11.5796Z" fill="white"/>
</g>
<g id="Group_6">
<path id="Vector_25" d="M87.5027 11.704C87.4311 11.704 87.292 11.6588 87.1793 11.6225C87.1077 11.5999 87.0401 11.5773 86.9898 11.566C85.724 11.1698 84.7512 10.5592 84.0209 9.70025C83.8976 9.5385 83.781 9.3755 83.667 9.21751C83.0321 8.33226 82.4834 7.56739 81.0361 7.50094C80.9181 7.50094 80.828 7.47084 80.7949 7.42445C80.771 7.39059 80.771 7.34295 80.7949 7.28151C81.2998 5.87339 82.1256 4.83518 83.3211 4.10416C84.3946 3.6001 85.4033 3.3418 86.3138 3.3418C86.7141 3.3418 87.0998 3.39195 87.4616 3.49101C88.1866 3.67533 89.3039 4.3098 89.3424 4.84395C89.3596 5.08344 89.1528 5.29034 88.73 5.4571L88.6956 5.47591C86.7539 7.03324 86.51 9.93598 87.4934 11.6751C87.4987 11.6864 87.5027 11.6939 87.5053 11.7002L87.5027 11.704Z" fill="white"/>
<path id="Vector_26" d="M86.3125 3.40688C86.7061 3.40688 87.0865 3.45578 87.4444 3.55484C88.1575 3.73665 89.2403 4.36109 89.2748 4.85136C89.2893 5.06201 89.0972 5.24759 88.7022 5.40307L88.6942 5.40683L88.6863 5.41059L88.6598 5.42564L88.6492 5.43065L88.6399 5.43818C87.74 6.16042 87.1316 7.2375 86.9262 8.46882C86.7406 9.58478 86.9076 10.7258 87.3821 11.6198C87.3224 11.6035 87.2549 11.5822 87.1979 11.5634C87.1276 11.5408 87.0613 11.5195 87.0083 11.507C85.7532 11.1133 84.7936 10.5101 84.0713 9.66503C83.9467 9.50202 83.8314 9.34027 83.7187 9.18479C83.0732 8.28575 82.5166 7.50834 81.0308 7.44063C80.9274 7.44063 80.8638 7.41556 80.8466 7.39173C80.8307 7.37042 80.8466 7.32528 80.8558 7.30271C81.3542 5.91215 82.1693 4.88647 83.3476 4.16423C84.4159 3.66268 85.4126 3.40814 86.3112 3.40814M86.3125 3.28149C85.2548 3.28149 84.1998 3.62255 83.284 4.05389C82.0487 4.80873 81.223 5.89459 80.7326 7.26133C80.6451 7.48076 80.8254 7.56351 81.0334 7.56602C82.6995 7.64126 83.1355 8.64938 83.9692 9.74152C84.7605 10.6706 85.8049 11.2625 86.9752 11.6286C87.1091 11.6587 87.3768 11.7678 87.504 11.7678C87.5716 11.7678 87.6008 11.7377 87.5517 11.6499C86.5458 9.87192 86.8559 7.03814 88.7287 5.53473L88.7552 5.51968C90.4438 4.85261 88.4424 3.68023 87.4802 3.43447C87.0958 3.32914 86.7035 3.28275 86.3138 3.28275L86.3125 3.28149Z" fill="white"/>
</g>
<g id="Group_7">
<path id="Vector_27" d="M78.1732 20.7192C78.0923 20.7192 77.9956 20.7067 77.8856 20.6816C77.7279 20.639 77.5542 20.5938 77.3713 20.5462C75.5569 20.071 72.8159 19.3512 71.2361 18.3017C70.5535 17.824 70.2182 17.1168 69.8815 16.3093C69.6376 15.7463 69.2069 15.2059 68.6661 14.7858C67.3566 13.8266 66.6065 12.3784 66.6581 10.9113C66.7072 9.35275 67.1472 8.12018 67.9663 7.24622L67.9968 7.21613C68.3573 6.85375 69.0651 6.41113 69.3805 6.41113C69.4057 6.41113 69.4256 6.41364 69.4428 6.41991C69.6376 6.50894 69.6138 6.73714 69.5581 7.04811C69.5422 7.13713 69.5276 7.22114 69.5237 7.29763C69.2891 8.6443 69.2917 10.0599 69.5303 11.4994C69.5661 11.7502 69.574 12.0085 69.5806 12.2567C69.5992 12.8862 69.6191 13.5382 70.1002 14.1C71.0068 15.1382 72.2195 15.5683 73.5052 16.0234L73.7185 16.0987C74.2156 16.278 74.6529 16.4197 75.0757 16.5576C75.4548 16.6817 75.8127 16.7983 76.1997 16.9363C76.9114 17.1908 77.2414 17.8453 77.5622 18.4798C77.6523 18.6591 77.7464 18.8447 77.8471 19.0177L77.9121 19.1268C78.144 19.5142 78.6278 20.3192 78.4489 20.6101C78.4038 20.6841 78.3137 20.7192 78.1745 20.7192H78.1732Z" fill="white"/>
<path id="Vector_28" d="M69.3805 6.47256C69.3978 6.47256 69.4084 6.47381 69.415 6.47632C69.5661 6.55155 69.5436 6.74716 69.4932 7.03681C69.4773 7.12458 69.4627 7.20859 69.4574 7.28633C69.2228 8.64429 69.2255 10.0649 69.464 11.5057C69.4998 11.7552 69.5064 12.011 69.5144 12.2592C69.5343 12.8987 69.5542 13.5608 70.0499 14.1413C70.967 15.1921 72.1891 15.6247 73.4813 16.0836L73.6934 16.1588C74.1917 16.3381 74.6304 16.4811 75.0532 16.619C75.431 16.7419 75.7888 16.8585 76.1745 16.9964C76.8611 17.2422 77.1858 17.8854 77.4999 18.5086C77.5914 18.6892 77.6855 18.8747 77.7862 19.0503C77.8061 19.0829 77.8273 19.1193 77.8512 19.1594C78.042 19.4766 78.5483 20.3205 78.3893 20.58C78.3773 20.5988 78.3415 20.6578 78.1719 20.6578C78.0963 20.6578 78.0049 20.6452 77.9042 20.6227C77.7438 20.58 77.5702 20.5349 77.3873 20.486C75.5781 20.012 72.8425 19.2948 71.2759 18.2516C70.6065 17.7826 70.2752 17.0842 69.9412 16.2842C69.6933 15.7137 69.256 15.1632 68.7046 14.7344C67.4137 13.7877 66.6728 12.3596 66.7244 10.9126C66.7735 9.36903 67.2082 8.15026 68.0114 7.29134L68.0459 7.25874C68.4249 6.87756 69.1102 6.47381 69.3805 6.47381M69.3805 6.34717C69.0439 6.34717 68.3149 6.80358 67.9491 7.17223L67.916 7.20483C66.9643 8.22047 66.6343 9.5684 66.5919 10.9088C66.5376 12.4436 67.3567 13.9043 68.6237 14.8335C69.1274 15.2259 69.5674 15.7501 69.8193 16.3319C70.1347 17.088 70.4727 17.8453 71.1977 18.3531C72.9485 19.5167 76.1295 20.2791 77.8684 20.743C77.9877 20.7694 78.0884 20.7819 78.1719 20.7819C79.0374 20.7819 78.1878 19.4703 77.9015 18.9876C77.4482 18.2089 77.1633 17.2146 76.2196 16.8786C75.3899 16.5839 74.6715 16.377 73.7384 16.041C72.3521 15.5469 71.0916 15.1419 70.1493 14.0611C69.4959 13.2975 69.7198 12.3859 69.5926 11.4894C69.3633 10.1113 69.3421 8.70573 69.586 7.30012C69.6019 6.99794 69.806 6.5177 69.464 6.36096C69.4402 6.35218 69.411 6.34842 69.3779 6.34842L69.3805 6.34717Z" fill="white"/>
</g>
<g id="Group_8">
<path id="Vector_29" d="M105.336 14.2104C105.308 14.2104 105.28 14.2041 105.254 14.1916C104.881 14.0123 104.539 13.848 104.195 13.685C103.675 13.4393 103.495 13.117 103.531 12.4976C103.578 11.67 103.578 10.7685 103.533 9.73906C103.51 9.20992 102.969 8.72843 102.399 8.72843C102.399 8.72843 102.325 8.72968 102.303 8.72968C101.515 8.72968 101.027 8.26198 100.653 7.80432C99.6712 6.60184 98.3166 5.63133 96.5114 4.84138C95.8567 4.55424 95.1476 4.35362 94.4637 4.15927C94.0648 4.04642 93.6539 3.92981 93.2576 3.7969C92.9448 3.69282 92.689 3.52856 92.5724 3.35804C92.2476 2.88281 91.9534 2.38 91.6433 1.84836L91.5081 1.61639C91.4763 1.56247 91.4763 1.49978 91.5094 1.44711C91.5425 1.3932 91.6008 1.3606 91.6658 1.3606C91.679 1.3606 91.6936 1.36185 91.7069 1.36436C91.8089 1.38567 91.8845 1.40824 91.9508 1.43708C92.4756 1.66404 93.0257 1.85964 93.5571 2.05023C94.6175 2.42891 95.7149 2.82137 96.6612 3.47089C96.7394 3.5248 96.8229 3.5737 96.9051 3.62135C96.978 3.66398 97.0496 3.70662 97.1145 3.7505C98.1112 4.42384 99.1596 4.84138 100.085 5.20877L100.286 5.28902C101.349 5.71283 102.24 6.12536 103.136 6.75607C104.514 7.72657 104.775 9.09206 105.051 10.5378L105.091 10.7484C105.214 11.3842 105.28 12.0424 105.345 12.6782C105.384 13.0506 105.422 13.4368 105.472 13.8142C105.48 13.8706 105.492 13.9295 105.511 13.9935C105.525 14.0462 105.515 14.0976 105.48 14.1402C105.446 14.1828 105.392 14.2092 105.336 14.2092V14.2104Z" fill="white"/>
<path id="Vector_30" d="M91.6644 1.42324C91.6737 1.42324 91.683 1.42324 91.691 1.42575C91.789 1.44581 91.8593 1.46713 91.9216 1.49346C92.4491 1.72041 92.9991 1.91727 93.5319 2.10786C94.5883 2.48528 95.6817 2.87649 96.6214 3.52099C96.7023 3.57616 96.7871 3.62632 96.8693 3.67522C96.9435 3.71911 97.0124 3.75923 97.0747 3.80186C98.078 4.48021 99.1291 4.89776 100.058 5.26765L100.26 5.3479C101.317 5.77046 102.205 6.18048 103.096 6.80743C104.453 7.76289 104.712 9.11708 104.985 10.5503L105.024 10.7609C105.146 11.3941 105.213 12.0512 105.278 12.6856C105.316 13.0593 105.354 13.4442 105.405 13.8229C105.413 13.8819 105.426 13.9445 105.445 14.011C105.457 14.0536 105.441 14.085 105.426 14.1038C105.404 14.1314 105.369 14.1477 105.335 14.1477C105.317 14.1477 105.299 14.1439 105.282 14.1351C104.917 13.9596 104.57 13.7928 104.223 13.6286C103.731 13.3966 103.561 13.0906 103.596 12.5013C103.643 11.6713 103.643 10.7672 103.598 9.73776C103.573 9.17727 103.001 8.66694 102.398 8.66694C102.387 8.66694 102.375 8.66694 102.364 8.66694C102.343 8.66694 102.322 8.66694 102.302 8.66694C101.543 8.66694 101.068 8.21178 100.705 7.76665C99.7162 6.5554 98.3537 5.57987 96.5393 4.78491C95.8792 4.49526 95.1701 4.29464 94.4822 4.10029C94.0846 3.98744 93.6738 3.87083 93.2788 3.73917C92.9792 3.63886 92.7367 3.48463 92.628 3.32539C92.3046 2.85142 92.0117 2.34986 91.7002 1.81821L91.565 1.58625C91.5372 1.5386 91.5544 1.49847 91.565 1.47967C91.5862 1.44456 91.6234 1.42449 91.6644 1.42449M91.6644 1.29785C91.4829 1.29785 91.3543 1.48468 91.4484 1.64643C91.8169 2.27463 92.1442 2.84765 92.5167 3.39184C92.6625 3.60626 92.9673 3.76675 93.235 3.85578C94.3139 4.21564 95.4524 4.44511 96.4836 4.89776C98.0648 5.59116 99.5068 6.50399 100.6 7.84314C101.023 8.36099 101.524 8.79233 102.302 8.79233C102.325 8.79233 102.347 8.79233 102.37 8.79233C102.379 8.79233 102.39 8.79233 102.399 8.79233C102.929 8.79233 103.445 9.24624 103.467 9.74277C103.508 10.6594 103.517 11.5797 103.466 12.4951C103.431 13.0881 103.584 13.4668 104.166 13.7414C104.513 13.9057 104.859 14.0724 105.225 14.248C105.262 14.2655 105.3 14.2743 105.337 14.2743C105.49 14.2743 105.62 14.1376 105.576 13.9797C105.56 13.9232 105.547 13.8656 105.539 13.8079C105.404 12.786 105.352 11.7502 105.157 10.7384C104.869 9.24624 104.644 7.74032 103.176 6.70712C102.28 6.07641 101.403 5.6689 100.311 5.23255C99.3292 4.84008 98.2146 4.41877 97.1516 3.7003C97.0138 3.60751 96.8454 3.52099 96.6983 3.42068C95.2695 2.44014 93.5505 2.06021 91.9759 1.38061C91.8964 1.34675 91.8116 1.32418 91.7188 1.30412C91.7002 1.30036 91.6817 1.29785 91.6631 1.29785H91.6644Z" fill="white"/>
</g>
<g id="Group_9">
<path id="Vector_31" d="M95.2946 22.3431C95.2787 22.3431 95.2589 22.3356 95.2496 22.3155L94.0541 19.6623C94.0448 19.6422 94.0527 19.6259 94.058 19.6184C94.0673 19.6046 94.0832 19.5958 94.1018 19.5958C94.2025 19.6034 94.3006 19.6071 94.3947 19.6071C95.8314 19.6071 96.8666 18.7144 97.52 18.0423C97.5743 17.9871 97.6327 17.9282 97.6936 17.8667C98.2079 17.3539 98.9117 16.6505 98.8229 15.8392C98.7977 15.6085 98.7195 15.4279 98.6519 15.2687C98.5631 15.0605 98.4981 14.9113 98.5856 14.7446C98.7751 14.3872 99.4259 14.3596 99.6207 14.3596C99.7467 14.3596 99.8726 14.3684 99.9852 14.386C100.126 14.4073 100.845 14.5477 101.244 15.1521C101.657 15.7765 101.437 16.5151 101.291 17.0028L101.256 17.1182C100.815 18.6404 99.5744 19.5169 98.4451 20.219C98.237 20.3494 98.0144 20.4698 97.801 20.5864C97.5147 20.7419 97.2178 20.9036 96.9461 21.0905C96.5286 21.3776 96.123 21.6986 95.7307 22.0096C95.5968 22.1162 95.4617 22.224 95.3238 22.3306C95.3119 22.3393 95.2999 22.3419 95.292 22.3419L95.2946 22.3431Z" fill="white"/>
<path id="Vector_32" d="M99.6234 14.4235C99.7453 14.4235 99.8673 14.4323 99.9773 14.4498C100.061 14.4624 100.799 14.5928 101.191 15.1884C101.588 15.789 101.381 16.4824 101.23 16.9889C101.218 17.0291 101.206 17.0667 101.195 17.1043C101.003 17.7663 100.652 18.3481 100.119 18.8823C99.6009 19.4027 98.966 19.8252 98.412 20.17C98.2052 20.2992 97.9852 20.4183 97.7718 20.5349C97.4829 20.6917 97.186 20.8534 96.9103 21.0427C96.4902 21.3311 96.0846 21.6534 95.6923 21.9644C95.5637 22.0659 95.4338 22.1687 95.3039 22.2716L94.1283 19.6622C94.2184 19.6685 94.3099 19.6723 94.3987 19.6723C95.8606 19.6723 96.9103 18.7682 97.573 18.0873C97.6273 18.0322 97.6857 17.9745 97.7466 17.913C98.2702 17.3914 98.9859 16.6755 98.8944 15.8354C98.8679 15.5959 98.7857 15.4028 98.7181 15.2473C98.624 15.0291 98.579 14.91 98.6505 14.7746C98.7871 14.5163 99.2443 14.4235 99.626 14.4235M99.6234 14.2981C99.1887 14.2981 98.6943 14.4047 98.5286 14.7181C98.3537 15.0504 98.7009 15.3213 98.7592 15.8479C98.8547 16.7256 97.9706 17.4905 97.4723 18.0021C96.6359 18.861 95.6578 19.5469 94.396 19.5469C94.3032 19.5469 94.2091 19.5431 94.1137 19.5356C94.1097 19.5356 94.1071 19.5356 94.1031 19.5356C94.0196 19.5356 93.9613 19.6146 93.9944 19.6898C94.4212 20.6377 94.8175 21.518 95.1899 22.343C95.2085 22.3857 95.2522 22.4082 95.296 22.4082C95.3212 22.4082 95.3477 22.4007 95.3702 22.3832C95.9136 21.9581 96.4318 21.528 96.9885 21.1456C97.4603 20.8208 97.9971 20.5801 98.4862 20.2754C99.7493 19.4892 100.893 18.6227 101.325 17.1381C101.471 16.6353 101.767 15.8216 101.305 15.1232C100.879 14.4761 100.091 14.342 100.001 14.3282C99.8898 14.3106 99.7599 14.3006 99.626 14.3006L99.6234 14.2981Z" fill="white"/>
</g>
<g id="Group_10">
<path id="Vector_33" d="M89.7586 4.34849C88.8891 3.74788 88.0143 3.24257 87.1568 2.84759C86.6253 2.60183 86.2622 2.50653 85.8646 2.50653C85.8261 2.50653 85.7877 2.50653 85.7479 2.50904C85.3649 2.52534 84.9832 2.63443 84.6147 2.83129C84.396 2.9479 84.2847 2.97173 84.1853 2.97173C84.1468 2.97173 84.1084 2.96796 84.066 2.96295C83.8619 2.94038 83.6935 2.79744 83.3304 2.47644C82.8705 2.07018 82.8692 1.95482 82.8692 1.91721C82.8678 1.76173 82.9818 1.63634 83.0945 1.53352C84.18 0.544203 85.4722 0.0639648 87.0455 0.0639648C87.3079 0.0639648 87.5849 0.0777576 87.8659 0.104089C89.2695 0.238255 90.1257 1.0608 91.0309 1.931C91.1463 2.0426 91.2616 2.15294 91.3782 2.26328C91.5704 2.44259 91.7268 2.66703 91.8792 2.88395L91.9508 2.98552C92.1496 3.26639 92.2145 3.42313 92.1774 3.52594C92.1628 3.56732 92.131 3.65384 91.5956 3.84067C91.2854 3.9485 91.0455 4.00618 90.7685 4.07264C90.6413 4.10399 90.5087 4.13533 90.3603 4.1742C90.1575 4.22812 89.956 4.28705 89.7586 4.34975V4.34849Z" fill="white"/>
<path id="Vector_34" d="M87.0441 0V0.125389C87.3052 0.125389 87.5782 0.139181 87.8579 0.165513C89.2376 0.297171 90.0846 1.11094 90.9819 1.97362C91.0972 2.08521 91.2138 2.19555 91.3304 2.3059C91.5173 2.48144 91.6724 2.70338 91.8235 2.91779L91.8937 3.0181C92.0157 3.18989 92.1495 3.40054 92.1124 3.50461C92.0833 3.58737 91.801 3.70022 91.5703 3.78047C91.2628 3.88705 91.0256 3.94473 90.7499 4.01118C90.6214 4.04253 90.4901 4.07388 90.3404 4.114C90.1482 4.16541 89.956 4.22058 89.7678 4.27951C88.905 3.68517 88.0355 3.18487 87.1833 2.79115C86.6412 2.54163 86.2714 2.44382 85.8619 2.44382C85.8221 2.44382 85.7823 2.44382 85.7426 2.44633C85.3489 2.46389 84.9579 2.57423 84.5789 2.7761C84.3734 2.88519 84.2714 2.90776 84.1826 2.90776C84.1481 2.90776 84.1137 2.904 84.0712 2.90024C83.8883 2.88018 83.7253 2.74099 83.3728 2.43003C83.0891 2.17925 82.9327 1.99744 82.9327 1.91594C82.9314 1.78428 83.0361 1.67143 83.1382 1.57864C84.2104 0.601865 85.4881 0.126642 87.0428 0.126642V0M87.0441 0C85.5345 0 84.2011 0.435098 83.0467 1.48711C82.946 1.57864 82.7989 1.72535 82.8002 1.91594C82.8002 1.97989 82.8187 2.11154 83.2826 2.52031C83.6418 2.8388 83.826 2.99804 84.0553 3.02312C84.1004 3.02814 84.1415 3.0319 84.1826 3.0319C84.3005 3.0319 84.4238 3.0018 84.6451 2.88394C85.0123 2.68833 85.3821 2.58551 85.7492 2.57047C85.7876 2.56921 85.8247 2.56796 85.8632 2.56796C86.2462 2.56796 86.5988 2.65949 87.1263 2.90275C87.7293 3.18111 88.6425 3.65257 89.7453 4.41744C89.8818 4.37355 90.1018 4.30584 90.3762 4.23312C90.8414 4.11024 91.1555 4.05632 91.6154 3.89708C92.1456 3.71401 92.2118 3.61746 92.2383 3.54474C92.2874 3.40806 92.2012 3.22876 92.0037 2.94914C91.8248 2.69586 91.6499 2.43003 91.4232 2.21812C90.4027 1.26016 89.4815 0.195606 87.8698 0.0413782C87.5902 0.0137927 87.3145 0 87.0441 0Z" fill="white"/>
</g>
</g>
<path id="Vector_35" d="M96.2145 22.3857C96.787 22.0058 97.3583 21.6259 97.9309 21.2459C98.5246 20.8522 99.1131 20.4497 99.7162 20.0685C101.255 19.0955 101.855 17.651 102.048 15.9382C102.604 17.167 103.04 18.3733 103.018 19.6886C103.002 20.5425 102.765 20.8622 101.871 21.0466C100.872 21.2522 99.8527 21.3763 98.8533 21.5845C98.3683 21.686 97.9057 21.8892 97.4378 22.061C97.0521 22.2026 96.6744 22.3657 96.2927 22.5186C96.2662 22.4747 96.241 22.4309 96.2145 22.387V22.3857Z" fill="white"/>
</g>
</g>
<defs>
<filter id="filter0_d_1_58" x="82.8864" y="30.7502" width="28.2041" height="19.4343" filterUnits="userSpaceOnUse" color-interpolation-filters="sRGB">
<feFlood flood-opacity="0" result="BackgroundImageFix"/>
<feColorMatrix in="SourceAlpha" type="matrix" values="0 0 0 0 0 0 0 0 0 0 0 0 0 0 0 0 0 0 127 0" result="hardAlpha"/>
<feOffset dy="4"/>
<feGaussianBlur stdDeviation="2"/>
<feComposite in2="hardAlpha" operator="out"/>
<feColorMatrix type="matrix" values="0 0 0 0 0 0 0 0 0 0 0 0 0 0 0 0 0 0 0.25 0"/>
<feBlend mode="normal" in2="BackgroundImageFix" result="effect1_dropShadow_1_58"/>
<feBlend mode="normal" in="SourceGraphic" in2="effect1_dropShadow_1_58" result="shape"/>
</filter>
<clipPath id="clip0_1_58">
<rect width="167" height="121" fill="white"/>
</clipPath>
</defs>
</svg>
